<?xml version="1.0" encoding="UTF-8"?>
<svg xmlns="http://www.w3.org/2000/svg" xmlns:xlink="http://www.w3.org/1999/xlink" width="600" height="450" viewBox="0 0 600 450">
<defs>
<g>
<g id="glyph-0-0-41010b56">
<path d="M 9.046875 0 C 9.046875 0 7.578125 0 7.578125 0 C 7.578125 0 2.296875 -8.28125 2.296875 -8.28125 C 2.296875 -8.28125 2.296875 0 2.296875 0 C 2.296875 0 1.0625 0 1.0625 0 C 1.0625 0 1.0625 -10.203125 1.0625 -10.203125 C 1.0625 -10.203125 2.484375 -10.203125 2.484375 -10.203125 C 2.484375 -10.203125 7.8125 -1.859375 7.8125 -1.859375 C 7.8125 -1.859375 7.8125 -10.203125 7.8125 -10.203125 C 7.8125 -10.203125 9.046875 -10.203125 9.046875 -10.203125 C 9.046875 -10.203125 9.046875 0 9.046875 0 Z M 9.046875 0 "/>
</g>
<g id="glyph-0-1-41010b56">
<path d="M 7.15625 -7.015625 C 7.15625 -5.796875 6.4375 -4.765625 5.046875 -4.015625 C 5.046875 -4.015625 3.65625 -3.265625 3.65625 -3.265625 C 2.4375 -2.546875 1.984375 -2.03125 1.859375 -1.21875 C 1.859375 -1.21875 7.078125 -1.21875 7.078125 -1.21875 C 7.078125 -1.21875 7.078125 0 7.078125 0 C 7.078125 0 0.46875 0 0.46875 0 C 0.59375 -2.1875 1.1875 -3.125 3.265625 -4.296875 C 3.265625 -4.296875 4.546875 -5.03125 4.546875 -5.03125 C 5.4375 -5.53125 5.890625 -6.203125 5.890625 -6.984375 C 5.890625 -8.046875 5.046875 -8.84375 3.9375 -8.84375 C 2.71875 -8.84375 2.03125 -8.140625 1.9375 -6.484375 C 1.9375 -6.484375 0.703125 -6.484375 0.703125 -6.484375 C 0.765625 -8.890625 1.953125 -9.921875 3.96875 -9.921875 C 5.859375 -9.921875 7.15625 -8.6875 7.15625 -7.015625 Z M 7.15625 -7.015625 "/>
</g>
<g id="glyph-0-2-41010b56">
<path d="M 7.09375 -4.78125 C 7.09375 -1.515625 5.953125 0.203125 3.84375 0.203125 C 1.71875 0.203125 0.609375 -1.515625 0.609375 -4.859375 C 0.609375 -8.1875 1.703125 -9.921875 3.84375 -9.921875 C 6 -9.921875 7.09375 -8.21875 7.09375 -4.78125 Z M 5.84375 -4.890625 C 5.84375 -7.546875 5.1875 -8.828125 3.84375 -8.828125 C 2.515625 -8.828125 1.859375 -7.5625 1.859375 -4.84375 C 1.859375 -2.125 2.515625 -0.8125 3.828125 -0.8125 C 5.1875 -0.8125 5.84375 -2.078125 5.84375 -4.890625 Z M 5.84375 -4.890625 "/>
</g>
<g id="glyph-0-3-41010b56">
<path d="M 7.28125 -2.375 C 7.28125 -2.375 5.8125 -2.375 5.8125 -2.375 C 5.8125 -2.375 5.8125 0 5.8125 0 C 5.8125 0 4.578125 0 4.578125 0 C 4.578125 0 4.578125 -2.375 4.578125 -2.375 C 4.578125 -2.375 0.390625 -2.375 0.390625 -2.375 C 0.390625 -2.375 0.390625 -3.6875 0.390625 -3.6875 C 0.390625 -3.6875 4.90625 -9.921875 4.90625 -9.921875 C 4.90625 -9.921875 5.8125 -9.921875 5.8125 -9.921875 C 5.8125 -9.921875 5.8125 -3.484375 5.8125 -3.484375 C 5.8125 -3.484375 7.28125 -3.484375 7.28125 -3.484375 C 7.28125 -3.484375 7.28125 -2.375 7.28125 -2.375 Z M 4.578125 -3.484375 C 4.578125 -3.484375 4.578125 -7.828125 4.578125 -7.828125 C 4.578125 -7.828125 1.46875 -3.484375 1.46875 -3.484375 C 1.46875 -3.484375 4.578125 -3.484375 4.578125 -3.484375 Z M 4.578125 -3.484375 "/>
</g>
<g id="glyph-0-4-41010b56">
<path d="M 7.1875 -3.078125 C 7.1875 -1.140625 5.828125 0.203125 3.9375 0.203125 C 1.671875 0.203125 0.609375 -1.421875 0.609375 -4.515625 C 0.609375 -7.984375 1.84375 -9.921875 4.15625 -9.921875 C 5.671875 -9.921875 6.734375 -8.953125 6.96875 -7.34375 C 6.96875 -7.34375 5.734375 -7.34375 5.734375 -7.34375 C 5.546875 -8.28125 4.9375 -8.828125 4.078125 -8.828125 C 2.65625 -8.828125 1.875 -7.484375 1.859375 -5.0625 C 2.390625 -5.796875 3.15625 -6.171875 4.140625 -6.171875 C 5.921875 -6.171875 7.1875 -4.921875 7.1875 -3.078125 Z M 5.921875 -2.984375 C 5.921875 -4.3125 5.1875 -5.078125 3.984375 -5.078125 C 2.765625 -5.078125 1.9375 -4.28125 1.9375 -3.046875 C 1.9375 -1.78125 2.796875 -0.875 3.953125 -0.875 C 5.078125 -0.875 5.921875 -1.734375 5.921875 -2.984375 Z M 5.921875 -2.984375 "/>
</g>
<g id="glyph-0-5-41010b56">
<path d="M 4.859375 0 C 4.859375 0 3.625 0 3.625 0 C 3.625 0 3.625 -7.0625 3.625 -7.0625 C 3.625 -7.0625 1.421875 -7.0625 1.421875 -7.0625 C 1.421875 -7.0625 1.421875 -7.953125 1.421875 -7.953125 C 3.328125 -8.1875 3.609375 -8.40625 4.046875 -9.921875 C 4.046875 -9.921875 4.859375 -9.921875 4.859375 -9.921875 C 4.859375 -9.921875 4.859375 0 4.859375 0 Z M 4.859375 0 "/>
</g>
<g id="glyph-1-0-41010b56">
<path d="M 2.96875 -2.296875 C 2.96875 -2.296875 2.96875 -1.34375 2.96875 -1.34375 C 2.96875 -1.34375 -10.203125 -1.34375 -10.203125 -1.34375 C -10.203125 -1.34375 -10.203125 -2.296875 -10.203125 -2.296875 C -10.203125 -2.296875 2.96875 -2.296875 2.96875 -2.296875 Z M 2.96875 -2.296875 "/>
</g>
<g id="glyph-2-0-41010b56">
<path d="M 2.96875 -2.296875 C 2.96875 -2.296875 2.96875 -1.34375 2.96875 -1.34375 C 2.96875 -1.34375 -10.203125 -1.34375 -10.203125 -1.34375 C -10.203125 -1.34375 -10.203125 -2.296875 -10.203125 -2.296875 C -10.203125 -2.296875 2.96875 -2.296875 2.96875 -2.296875 Z M 2.96875 -2.296875 "/>
</g>
<g id="glyph-2-1-41010b56">
<path d="M -6.234375 -6.03125 C -6.234375 -6.03125 -6.234375 -4.0625 -6.234375 -4.0625 C -6.234375 -4.0625 -2.203125 -4.0625 -2.203125 -4.0625 C -1.546875 -4.0625 -0.890625 -4.421875 -0.890625 -5.03125 C -0.890625 -5.03125 0.171875 -5.03125 0.171875 -5.03125 C 0.171875 -3.8125 -0.9375 -2.90625 -2.203125 -2.90625 C -2.203125 -2.90625 -6.234375 -2.90625 -6.234375 -2.90625 C -6.234375 -2.90625 -6.234375 -0.953125 -6.234375 -0.953125 C -6.234375 -0.953125 -7.296875 -0.953125 -7.296875 -0.953125 C -7.296875 -0.953125 -7.296875 -6.03125 -7.296875 -6.03125 C -7.296875 -6.03125 -6.234375 -6.03125 -6.234375 -6.03125 Z M -6.234375 -6.03125 "/>
</g>
<g id="glyph-3-0-41010b56">
<path d="M 2.96875 -2.296875 C 2.96875 -2.296875 2.96875 -1.34375 2.96875 -1.34375 C 2.96875 -1.34375 -10.203125 -1.34375 -10.203125 -1.34375 C -10.203125 -1.34375 -10.203125 -2.296875 -10.203125 -2.296875 C -10.203125 -2.296875 2.96875 -2.296875 2.96875 -2.296875 Z M 2.96875 -2.296875 "/>
</g>
<g id="glyph-4-0-41010b56">
<path d="M -0.75 -1.0625 L -0.75 -2.46875 L -4.9375 -2.46875 L -4.65625 -0.9375 L -5.453125 -0.9375 L -5.71875 -2.515625 L -5.71875 -3.453125 L -0.75 -3.453125 L -0.75 -4.84375 L 0 -4.84375 L 0 -1.0625 Z M -0.75 -1.0625 "/>
</g>
<g id="glyph-5-0-41010b56">
<path d="M 4.765625 -2 C 4.765625 -2 0.625 -2 0.625 -2 C 0.625 -2 0.625 -2.625 0.625 -2.625 C 0.625 -2.625 4.765625 -2.625 4.765625 -2.625 C 4.765625 -2.625 4.765625 -2 4.765625 -2 Z M 4.765625 -2 "/>
</g>
<g id="glyph-5-1-41010b56">
<path d="M 4.6875 -3.15625 C 4.6875 -1 3.921875 0.140625 2.546875 0.140625 C 1.140625 0.140625 0.390625 -1 0.390625 -3.203125 C 0.390625 -5.40625 1.125 -6.546875 2.546875 -6.546875 C 3.96875 -6.546875 4.6875 -5.421875 4.6875 -3.15625 Z M 3.84375 -3.21875 C 3.84375 -4.984375 3.421875 -5.828125 2.546875 -5.828125 C 1.65625 -5.828125 1.234375 -4.984375 1.234375 -3.1875 C 1.234375 -1.40625 1.65625 -0.53125 2.515625 -0.53125 C 3.421875 -0.53125 3.84375 -1.359375 3.84375 -3.21875 Z M 3.84375 -3.21875 "/>
</g>
<g id="glyph-5-2-41010b56">
<path d="M 4.734375 -2.171875 C 4.734375 -0.78125 3.8125 0.140625 2.5 0.140625 C 1.328125 0.140625 0.59375 -0.375 0.328125 -1.6875 C 0.328125 -1.6875 1.140625 -1.6875 1.140625 -1.6875 C 1.328125 -0.9375 1.765625 -0.578125 2.46875 -0.578125 C 3.359375 -0.578125 3.90625 -1.125 3.90625 -2.0625 C 3.90625 -3.03125 3.359375 -3.59375 2.46875 -3.59375 C 1.96875 -3.59375 1.65625 -3.4375 1.28125 -2.984375 C 1.28125 -2.984375 0.53125 -2.984375 0.53125 -2.984375 C 0.53125 -2.984375 1.015625 -6.40625 1.015625 -6.40625 C 1.015625 -6.40625 4.390625 -6.40625 4.390625 -6.40625 C 4.390625 -6.40625 4.390625 -5.609375 4.390625 -5.609375 C 4.390625 -5.609375 1.671875 -5.609375 1.671875 -5.609375 C 1.671875 -5.609375 1.40625 -3.921875 1.40625 -3.921875 C 1.796875 -4.1875 2.15625 -4.3125 2.625 -4.3125 C 3.875 -4.3125 4.734375 -3.46875 4.734375 -2.171875 Z M 4.734375 -2.171875 "/>
</g>
<g id="glyph-6-0-41010b56">
<path d="M 3.203125 0 C 3.203125 0 2.390625 0 2.390625 0 C 2.390625 0 2.390625 -4.65625 2.390625 -4.65625 C 2.390625 -4.65625 0.9375 -4.65625 0.9375 -4.65625 C 0.9375 -4.65625 0.9375 -5.25 0.9375 -5.25 C 2.203125 -5.40625 2.375 -5.546875 2.671875 -6.546875 C 2.671875 -6.546875 3.203125 -6.546875 3.203125 -6.546875 C 3.203125 -6.546875 3.203125 0 3.203125 0 Z M 3.203125 0 "/>
</g>
<g id="glyph-6-1-41010b56">
<path d="M 4.765625 -2 C 4.765625 -2 0.625 -2 0.625 -2 C 0.625 -2 0.625 -2.625 0.625 -2.625 C 0.625 -2.625 4.765625 -2.625 4.765625 -2.625 C 4.765625 -2.625 4.765625 -2 4.765625 -2 Z M 4.765625 -2 "/>
</g>
<g id="glyph-7-0-41010b56">
<path d="M 7.09375 -4.78125 C 7.09375 -1.515625 5.953125 0.203125 3.84375 0.203125 C 1.71875 0.203125 0.609375 -1.515625 0.609375 -4.859375 C 0.609375 -8.1875 1.703125 -9.921875 3.84375 -9.921875 C 6 -9.921875 7.09375 -8.21875 7.09375 -4.78125 Z M 5.84375 -4.890625 C 5.84375 -7.546875 5.1875 -8.828125 3.84375 -8.828125 C 2.515625 -8.828125 1.859375 -7.5625 1.859375 -4.84375 C 1.859375 -2.125 2.515625 -0.8125 3.828125 -0.8125 C 5.1875 -0.8125 5.84375 -2.078125 5.84375 -4.890625 Z M 5.84375 -4.890625 "/>
</g>
<g id="glyph-8-0-41010b56">
<path d="M 8.375 -8.453125 C 8.375 -8.453125 5.390625 -8.453125 5.390625 -8.453125 C 5.390625 -8.453125 5.390625 0 5.390625 0 C 5.390625 0 3.296875 0 3.296875 0 C 3.296875 0 3.296875 -8.453125 3.296875 -8.453125 C 3.296875 -8.453125 0.203125 -8.453125 0.203125 -8.453125 C 0.203125 -8.453125 0.203125 -10.203125 0.203125 -10.203125 C 0.203125 -10.203125 8.375 -10.203125 8.375 -10.203125 C 8.375 -10.203125 8.375 -8.453125 8.375 -8.453125 Z M 8.375 -8.453125 "/>
</g>
<g id="glyph-8-1-41010b56">
<path d="M 7.34375 0 C 7.34375 0 5.203125 0 5.203125 0 C 5.03125 -0.21875 4.984375 -0.5625 4.984375 -0.953125 C 4.296875 -0.234375 3.53125 0.125 2.6875 0.125 C 1.421875 0.125 0.390625 -0.578125 0.390625 -2.046875 C 0.390625 -3.421875 1.125 -4.0625 2.625 -4.328125 C 2.625 -4.328125 3.40625 -4.46875 3.40625 -4.46875 C 4.375 -4.640625 4.96875 -4.546875 4.96875 -5.34375 C 4.96875 -5.859375 4.59375 -6.109375 3.84375 -6.109375 C 2.875 -6.109375 2.546875 -5.859375 2.453125 -5.0625 C 2.453125 -5.0625 0.5625 -5.0625 0.5625 -5.0625 C 0.6875 -6.8125 1.75 -7.6875 3.796875 -7.6875 C 5.84375 -7.6875 6.890625 -6.90625 6.890625 -5.359375 C 6.890625 -5.359375 6.890625 -1.15625 6.890625 -1.15625 C 6.890625 -0.765625 6.984375 -0.5625 7.34375 -0.234375 C 7.34375 -0.234375 7.34375 0 7.34375 0 Z M 4.96875 -3.234375 C 4.96875 -3.234375 4.96875 -3.5625 4.96875 -3.5625 C 4.75 -3.453125 4.65625 -3.4375 4.140625 -3.328125 C 4.140625 -3.328125 3.46875 -3.203125 3.46875 -3.203125 C 2.65625 -3.046875 2.359375 -2.84375 2.359375 -2.265625 C 2.359375 -1.703125 2.765625 -1.453125 3.421875 -1.453125 C 4.40625 -1.453125 4.96875 -2.09375 4.96875 -3.234375 Z M 4.96875 -3.234375 "/>
</g>
<g id="glyph-8-2-41010b56">
<path d="M 7.578125 0 C 7.578125 0 5.609375 0 5.609375 0 C 5.609375 0 5.609375 -1 5.609375 -1 C 5.046875 -0.25 4.375 0.125 3.34375 0.125 C 1.734375 0.125 0.8125 -0.828125 0.8125 -2.484375 C 0.8125 -2.484375 0.8125 -7.5625 0.8125 -7.5625 C 0.8125 -7.5625 2.765625 -7.5625 2.765625 -7.5625 C 2.765625 -7.5625 2.765625 -2.890625 2.765625 -2.890625 C 2.765625 -1.984375 3.1875 -1.546875 4.03125 -1.546875 C 4.984375 -1.546875 5.609375 -2.125 5.609375 -3.03125 C 5.609375 -3.03125 5.609375 -7.5625 5.609375 -7.5625 C 5.609375 -7.5625 7.578125 -7.5625 7.578125 -7.5625 C 7.578125 -7.5625 7.578125 0 7.578125 0 Z M 7.578125 0 "/>
</g>
<g id="glyph-8-3-41010b56">
</g>
<g id="glyph-8-4-41010b56">
<path d="M 11.53125 0 C 11.53125 0 9.578125 0 9.578125 0 C 9.578125 0 9.578125 -5.046875 9.578125 -5.046875 C 9.578125 -5.640625 9.171875 -6.015625 8.515625 -6.015625 C 7.671875 -6.015625 7.171875 -5.453125 7.171875 -4.53125 C 7.171875 -4.53125 7.171875 0 7.171875 0 C 7.171875 0 5.203125 0 5.203125 0 C 5.203125 0 5.203125 -5.046875 5.203125 -5.046875 C 5.203125 -5.640625 4.796875 -6.015625 4.140625 -6.015625 C 3.296875 -6.015625 2.796875 -5.453125 2.796875 -4.53125 C 2.796875 -4.53125 2.796875 0 2.796875 0 C 2.796875 0 0.84375 0 0.84375 0 C 0.84375 0 0.84375 -7.5625 0.84375 -7.5625 C 0.84375 -7.5625 2.78125 -7.5625 2.78125 -7.5625 C 2.78125 -7.5625 2.78125 -6.625 2.78125 -6.625 C 3.4375 -7.390625 3.984375 -7.6875 4.859375 -7.6875 C 5.796875 -7.6875 6.546875 -7.28125 6.921875 -6.5625 C 7.5 -7.34375 8.171875 -7.6875 9.125 -7.6875 C 10.640625 -7.6875 11.53125 -6.8125 11.53125 -5.34375 C 11.53125 -5.34375 11.53125 0 11.53125 0 Z M 11.53125 0 "/>
</g>
<g id="glyph-8-5-41010b56">
<path d="M 7.578125 0.25 C 7.578125 2.03125 6.265625 3.046875 3.96875 3.046875 C 1.90625 3.046875 0.65625 2.140625 0.625 0.90625 C 0.625 0.90625 2.65625 0.90625 2.65625 0.90625 C 2.8125 1.484375 3.296875 1.796875 4.046875 1.796875 C 5.03125 1.796875 5.71875 1.15625 5.71875 0.25 C 5.71875 0.25 5.71875 -0.875 5.71875 -0.875 C 4.984375 -0.140625 4.453125 0.125 3.5625 0.125 C 1.703125 0.125 0.46875 -1.34375 0.46875 -3.703125 C 0.46875 -6.03125 1.8125 -7.6875 3.609375 -7.6875 C 4.484375 -7.6875 5.125 -7.296875 5.71875 -6.390625 C 5.71875 -6.390625 5.71875 -7.5625 5.71875 -7.5625 C 5.71875 -7.5625 7.578125 -7.5625 7.578125 -7.5625 C 7.578125 -7.5625 7.578125 0.25 7.578125 0.25 Z M 5.734375 -3.71875 C 5.734375 -5.125 5.015625 -6.046875 4.03125 -6.046875 C 3.078125 -6.046875 2.4375 -5.15625 2.4375 -3.71875 C 2.4375 -2.359375 3.078125 -1.515625 4 -1.515625 C 5.03125 -1.515625 5.734375 -2.359375 5.734375 -3.71875 Z M 5.734375 -3.71875 "/>
</g>
<g id="glyph-8-6-41010b56">
<path d="M 7.640625 0 C 7.640625 0 5.6875 0 5.6875 0 C 5.6875 0 5.6875 -4.65625 5.6875 -4.65625 C 5.6875 -5.5625 5.265625 -6.015625 4.421875 -6.015625 C 3.46875 -6.015625 2.84375 -5.4375 2.84375 -4.53125 C 2.84375 -4.53125 2.84375 0 2.84375 0 C 2.84375 0 0.875 0 0.875 0 C 0.875 0 0.875 -7.5625 0.875 -7.5625 C 0.875 -7.5625 2.84375 -7.5625 2.84375 -7.5625 C 2.84375 -7.5625 2.84375 -6.46875 2.84375 -6.46875 C 3.40625 -7.3125 4.09375 -7.6875 5.109375 -7.6875 C 6.71875 -7.6875 7.640625 -6.734375 7.640625 -5.0625 C 7.640625 -5.0625 7.640625 0 7.640625 0 Z M 7.640625 0 "/>
</g>
<g id="glyph-8-7-41010b56">
<path d="M 2.890625 0 C 2.890625 0 0.9375 0 0.9375 0 C 0.9375 0 0.9375 -7.5625 0.9375 -7.5625 C 0.9375 -7.5625 2.890625 -7.5625 2.890625 -7.5625 C 2.890625 -7.5625 2.890625 0 2.890625 0 Z M 2.921875 -8.46875 C 2.921875 -8.46875 0.96875 -8.46875 0.96875 -8.46875 C 0.96875 -8.46875 0.96875 -10.4375 0.96875 -10.4375 C 0.96875 -10.4375 2.921875 -10.4375 2.921875 -10.4375 C 2.921875 -10.4375 2.921875 -8.46875 2.921875 -8.46875 Z M 2.921875 -8.46875 "/>
</g>
<g id="glyph-8-8-41010b56">
<path d="M 4.21875 0 C 3.859375 0.015625 3.515625 0.0625 3.078125 0.0625 C 1.796875 0.0625 1.15625 -0.4375 1.15625 -1.625 C 1.15625 -1.625 1.15625 -6.109375 1.15625 -6.109375 C 1.15625 -6.109375 0.203125 -6.109375 0.203125 -6.109375 C 0.203125 -6.109375 0.203125 -7.40625 0.203125 -7.40625 C 0.203125 -7.40625 1.15625 -7.40625 1.15625 -7.40625 C 1.15625 -7.40625 1.15625 -9.4375 1.15625 -9.4375 C 1.15625 -9.4375 3.125 -9.4375 3.125 -9.4375 C 3.125 -9.4375 3.125 -7.40625 3.125 -7.40625 C 3.125 -7.40625 4.21875 -7.40625 4.21875 -7.40625 C 4.21875 -7.40625 4.21875 -6.109375 4.21875 -6.109375 C 4.21875 -6.109375 3.125 -6.109375 3.125 -6.109375 C 3.125 -6.109375 3.125 -2.15625 3.125 -2.15625 C 3.125 -1.484375 3.25 -1.328125 3.765625 -1.328125 C 3.90625 -1.328125 4.015625 -1.34375 4.21875 -1.375 C 4.21875 -1.375 4.21875 0 4.21875 0 Z M 4.21875 0 "/>
</g>
<g id="glyph-8-9-41010b56">
<path d="M 7.625 0 C 7.625 0 5.671875 0 5.671875 0 C 5.671875 0 5.671875 -0.875 5.671875 -0.875 C 5.1875 -0.21875 4.515625 0.125 3.578125 0.125 C 1.578125 0.125 0.40625 -1.625 0.40625 -3.765625 C 0.40625 -6.046875 1.78125 -7.6875 3.578125 -7.6875 C 4.515625 -7.6875 5.1875 -7.34375 5.671875 -6.578125 C 5.671875 -6.578125 5.671875 -10.203125 5.671875 -10.203125 C 5.671875 -10.203125 7.625 -10.203125 7.625 -10.203125 C 7.625 -10.203125 7.625 0 7.625 0 Z M 5.671875 -3.734375 C 5.671875 -5.1875 5.015625 -6.046875 4.015625 -6.046875 C 3.03125 -6.046875 2.359375 -5.171875 2.359375 -3.765625 C 2.359375 -2.375 3.03125 -1.515625 4.015625 -1.515625 C 5 -1.515625 5.671875 -2.359375 5.671875 -3.734375 Z M 5.671875 -3.734375 "/>
</g>
<g id="glyph-8-10-41010b56">
<path d="M 7.34375 -3.5 C 7.34375 -3.5 7.34375 -3.265625 7.34375 -3.265625 C 7.34375 -3.265625 2.265625 -3.265625 2.265625 -3.265625 C 2.328125 -1.796875 2.90625 -1.375 3.84375 -1.375 C 4.546875 -1.375 5.171875 -1.578125 5.328125 -2.125 C 5.328125 -2.125 7.265625 -2.125 7.265625 -2.125 C 6.828125 -0.640625 5.453125 0.125 3.765625 0.125 C 1.625 0.125 0.3125 -1.265625 0.3125 -3.6875 C 0.3125 -6.21875 1.640625 -7.6875 3.8125 -7.6875 C 6.03125 -7.6875 7.34375 -6.109375 7.34375 -3.5 Z M 5.3125 -4.5625 C 5.203125 -5.640625 4.625 -6.1875 3.78125 -6.1875 C 2.90625 -6.1875 2.421875 -5.609375 2.296875 -4.5625 C 2.296875 -4.5625 5.3125 -4.5625 5.3125 -4.5625 Z M 5.3125 -4.5625 "/>
</g>
<g id="glyph-8-11-41010b56">
<path d="M 7.28125 -2.234375 C 7.28125 -0.71875 6.109375 0.125 3.96875 0.125 C 1.6875 0.125 0.46875 -0.734375 0.40625 -2.390625 C 0.40625 -2.390625 2.328125 -2.390625 2.328125 -2.390625 C 2.484375 -1.578125 2.96875 -1.40625 3.859375 -1.40625 C 4.78125 -1.40625 5.3125 -1.59375 5.3125 -2.0625 C 5.3125 -2.265625 5.15625 -2.421875 4.65625 -2.578125 C 4.65625 -2.578125 2.328125 -3.296875 2.328125 -3.296875 C 0.921875 -3.734375 0.671875 -4.234375 0.671875 -5.171875 C 0.671875 -6.71875 1.859375 -7.6875 3.78125 -7.6875 C 5.8125 -7.6875 7.046875 -6.71875 7.0625 -5.125 C 7.0625 -5.125 5.1875 -5.125 5.1875 -5.125 C 5.171875 -5.8125 4.703125 -6.140625 3.765625 -6.140625 C 3.078125 -6.140625 2.625 -5.859375 2.625 -5.453125 C 2.625 -5.140625 2.765625 -5.015625 3.3125 -4.859375 C 3.3125 -4.859375 5.796875 -4.140625 5.796875 -4.140625 C 6.796875 -3.84375 7.28125 -3.203125 7.28125 -2.34375 C 7.28125 -2.34375 7.28125 -2.234375 7.28125 -2.234375 Z M 7.28125 -2.234375 "/>
</g>
<g id="glyph-8-12-41010b56">
<path d="M 4.375 -6.109375 C 4.375 -6.109375 3.21875 -6.109375 3.21875 -6.109375 C 3.21875 -6.109375 3.21875 0 3.21875 0 C 3.21875 0 1.265625 0 1.265625 0 C 1.265625 0 1.265625 -6.109375 1.265625 -6.109375 C 1.265625 -6.109375 0.203125 -6.109375 0.203125 -6.109375 C 0.203125 -6.109375 0.203125 -7.40625 0.203125 -7.40625 C 0.203125 -7.40625 1.265625 -7.40625 1.265625 -7.40625 C 1.265625 -7.40625 1.265625 -8.3125 1.265625 -8.3125 C 1.265625 -9.59375 1.890625 -10.203125 3.1875 -10.203125 C 3.453125 -10.203125 3.953125 -10.1875 4.3125 -10.15625 C 4.3125 -10.15625 4.3125 -8.6875 4.3125 -8.6875 C 4.140625 -8.71875 3.921875 -8.734375 3.75 -8.734375 C 3.390625 -8.734375 3.21875 -8.546875 3.21875 -8.140625 C 3.21875 -8.140625 3.21875 -7.40625 3.21875 -7.40625 C 3.21875 -7.40625 4.375 -7.40625 4.375 -7.40625 C 4.375 -7.40625 4.375 -6.109375 4.375 -6.109375 Z M 4.375 -6.109375 "/>
</g>
<g id="glyph-8-13-41010b56">
<path d="M 7.96875 -3.71875 C 7.96875 -1.296875 6.53125 0.125 4.234375 0.125 C 1.90625 0.125 0.484375 -1.28125 0.484375 -3.78125 C 0.484375 -6.265625 1.90625 -7.6875 4.21875 -7.6875 C 6.578125 -7.6875 7.96875 -6.28125 7.96875 -3.71875 Z M 6 -3.75 C 6 -5.234375 5.3125 -6.109375 4.234375 -6.109375 C 3.15625 -6.109375 2.453125 -5.21875 2.453125 -3.78125 C 2.453125 -2.34375 3.15625 -1.453125 4.234375 -1.453125 C 5.28125 -1.453125 6 -2.34375 6 -3.75 Z M 6 -3.75 "/>
</g>
<g id="glyph-8-14-41010b56">
<path d="M 5.1875 -5.6875 C 4.90625 -5.71875 4.78125 -5.734375 4.5625 -5.734375 C 3.421875 -5.734375 2.84375 -5.171875 2.84375 -4.015625 C 2.84375 -4.015625 2.84375 0 2.84375 0 C 2.84375 0 0.875 0 0.875 0 C 0.875 0 0.875 -7.5625 0.875 -7.5625 C 0.875 -7.5625 2.84375 -7.5625 2.84375 -7.5625 C 2.84375 -7.5625 2.84375 -6.078125 2.84375 -6.078125 C 3.265625 -7.09375 4.046875 -7.6875 4.9375 -7.6875 C 5 -7.6875 5.0625 -7.6875 5.1875 -7.671875 C 5.1875 -7.671875 5.1875 -5.6875 5.1875 -5.6875 Z M 5.1875 -5.6875 "/>
</g>
<g id="glyph-8-15-41010b56">
<path d="M 7.3125 -2.625 C 7.125 -1.015625 5.859375 0.125 4.015625 0.125 C 1.78125 0.125 0.46875 -1.234375 0.46875 -3.71875 C 0.46875 -6.296875 1.796875 -7.6875 4.046875 -7.6875 C 5.9375 -7.6875 7.171875 -6.578125 7.3125 -4.734375 C 7.3125 -4.734375 5.4375 -4.734375 5.4375 -4.734375 C 5.203125 -5.71875 4.828125 -6.109375 4.03125 -6.109375 C 2.796875 -6.109375 2.4375 -5.109375 2.4375 -3.71875 C 2.4375 -2.25 3.03125 -1.453125 4.03125 -1.453125 C 4.78125 -1.453125 5.1875 -1.828125 5.4375 -2.625 C 5.4375 -2.625 7.3125 -2.625 7.3125 -2.625 Z M 7.3125 -2.625 "/>
</g>
<g id="glyph-8-16-41010b56">
<path d="M 2.890625 0 C 2.890625 0 0.9375 0 0.9375 0 C 0.9375 0 0.9375 -10.203125 0.9375 -10.203125 C 0.9375 -10.203125 2.890625 -10.203125 2.890625 -10.203125 C 2.890625 -10.203125 2.890625 0 2.890625 0 Z M 2.890625 0 "/>
</g>
<g id="glyph-8-17-41010b56">
<path d="M 3 -0.125 C 3 0.96875 2.796875 1.484375 2.234375 1.921875 C 1.859375 2.21875 1.46875 2.359375 0.890625 2.4375 C 0.890625 2.4375 0.890625 1.65625 0.890625 1.65625 C 1.71875 1.484375 2.09375 1 2.09375 0.046875 C 2.09375 0.046875 2.09375 0 2.09375 0 C 2.09375 0 0.890625 0 0.890625 0 C 0.890625 0 0.890625 -2.046875 0.890625 -2.046875 C 0.890625 -2.046875 3 -2.046875 3 -2.046875 C 3 -2.046875 3 -0.125 3 -0.125 Z M 3 -0.125 "/>
</g>
<g id="glyph-8-18-41010b56">
<path d="M 7.265625 -3.421875 C 7.265625 -1.265625 5.921875 0.125 3.953125 0.125 C 2.765625 0.125 1.734375 -0.328125 1.15625 -1.25 C 0.65625 -2.046875 0.453125 -3.015625 0.453125 -4.71875 C 0.453125 -8.28125 1.71875 -10.140625 4.109375 -10.140625 C 5.734375 -10.140625 6.84375 -9.3125 7.09375 -7.671875 C 7.09375 -7.671875 5.28125 -7.671875 5.28125 -7.671875 C 5.03125 -8.296875 4.6875 -8.546875 4.0625 -8.546875 C 2.84375 -8.546875 2.484375 -7.65625 2.40625 -5.65625 C 3.03125 -6.296875 3.5625 -6.53125 4.375 -6.53125 C 6.09375 -6.53125 7.265625 -5.3125 7.265625 -3.421875 Z M 5.40625 -3.296875 C 5.40625 -4.375 4.8125 -5 3.90625 -5 C 3 -5 2.375 -4.34375 2.375 -3.25 C 2.375 -2.203125 3 -1.546875 3.890625 -1.546875 C 4.765625 -1.546875 5.40625 -2.21875 5.40625 -3.296875 Z M 5.40625 -3.296875 "/>
</g>
<g id="glyph-8-19-41010b56">
<path d="M 7.5 -7.5625 C 7.5 -7.5625 4.90625 0 4.90625 0 C 4.90625 0 2.84375 0 2.84375 0 C 2.84375 0 0.203125 -7.5625 0.203125 -7.5625 C 0.203125 -7.5625 2.265625 -7.5625 2.265625 -7.5625 C 2.265625 -7.5625 3.90625 -2.03125 3.90625 -2.03125 C 3.90625 -2.03125 5.4375 -7.5625 5.4375 -7.5625 C 5.4375 -7.5625 7.5 -7.5625 7.5 -7.5625 Z M 7.5 -7.5625 "/>
</g>
<g id="glyph-9-0-41010b56">
<path d="M 7.34375 0 C 7.34375 0 5.203125 0 5.203125 0 C 5.03125 -0.21875 4.984375 -0.5625 4.984375 -0.953125 C 4.296875 -0.234375 3.53125 0.125 2.6875 0.125 C 1.421875 0.125 0.390625 -0.578125 0.390625 -2.046875 C 0.390625 -3.421875 1.125 -4.0625 2.625 -4.328125 C 2.625 -4.328125 3.40625 -4.46875 3.40625 -4.46875 C 4.375 -4.640625 4.96875 -4.546875 4.96875 -5.34375 C 4.96875 -5.859375 4.59375 -6.109375 3.84375 -6.109375 C 2.875 -6.109375 2.546875 -5.859375 2.453125 -5.0625 C 2.453125 -5.0625 0.5625 -5.0625 0.5625 -5.0625 C 0.6875 -6.8125 1.75 -7.6875 3.796875 -7.6875 C 5.84375 -7.6875 6.890625 -6.90625 6.890625 -5.359375 C 6.890625 -5.359375 6.890625 -1.15625 6.890625 -1.15625 C 6.890625 -0.765625 6.984375 -0.5625 7.34375 -0.234375 C 7.34375 -0.234375 7.34375 0 7.34375 0 Z M 4.96875 -3.234375 C 4.96875 -3.234375 4.96875 -3.5625 4.96875 -3.5625 C 4.75 -3.453125 4.65625 -3.4375 4.140625 -3.328125 C 4.140625 -3.328125 3.46875 -3.203125 3.46875 -3.203125 C 2.65625 -3.046875 2.359375 -2.84375 2.359375 -2.265625 C 2.359375 -1.703125 2.765625 -1.453125 3.421875 -1.453125 C 4.40625 -1.453125 4.96875 -2.09375 4.96875 -3.234375 Z M 4.96875 -3.234375 "/>
</g>
<g id="glyph-10-0-41010b56">
<path d="M 2.890625 0 C 2.890625 0 0.9375 0 0.9375 0 C 0.9375 0 0.9375 -10.203125 0.9375 -10.203125 C 0.9375 -10.203125 2.890625 -10.203125 2.890625 -10.203125 C 2.890625 -10.203125 2.890625 0 2.890625 0 Z M 2.890625 0 "/>
</g>
<g id="glyph-11-0-41010b56">
<path d="M 8.734375 0 C 8.734375 0 1.109375 0 1.109375 0 C 1.109375 0 1.109375 -10.203125 1.109375 -10.203125 C 1.109375 -10.203125 8.484375 -10.203125 8.484375 -10.203125 C 8.484375 -10.203125 8.484375 -8.453125 8.484375 -8.453125 C 8.484375 -8.453125 3.203125 -8.453125 3.203125 -8.453125 C 3.203125 -8.453125 3.203125 -6.140625 3.203125 -6.140625 C 3.203125 -6.140625 8.09375 -6.140625 8.09375 -6.140625 C 8.09375 -6.140625 8.09375 -4.390625 8.09375 -4.390625 C 8.09375 -4.390625 3.203125 -4.390625 3.203125 -4.390625 C 3.203125 -4.390625 3.203125 -1.75 3.203125 -1.75 C 3.203125 -1.75 8.734375 -1.75 8.734375 -1.75 C 8.734375 -1.75 8.734375 0 8.734375 0 Z M 8.734375 0 "/>
</g>
<g id="glyph-11-1-41010b56">
<path d="M 2.890625 0 C 2.890625 0 0.9375 0 0.9375 0 C 0.9375 0 0.9375 -7.5625 0.9375 -7.5625 C 0.9375 -7.5625 2.890625 -7.5625 2.890625 -7.5625 C 2.890625 -7.5625 2.890625 0 2.890625 0 Z M 2.921875 -8.46875 C 2.921875 -8.46875 0.96875 -8.46875 0.96875 -8.46875 C 0.96875 -8.46875 0.96875 -10.4375 0.96875 -10.4375 C 0.96875 -10.4375 2.921875 -10.4375 2.921875 -10.4375 C 2.921875 -10.4375 2.921875 -8.46875 2.921875 -8.46875 Z M 2.921875 -8.46875 "/>
</g>
<g id="glyph-11-2-41010b56">
<path d="M 7.34375 -3.5 C 7.34375 -3.5 7.34375 -3.265625 7.34375 -3.265625 C 7.34375 -3.265625 2.265625 -3.265625 2.265625 -3.265625 C 2.328125 -1.796875 2.90625 -1.375 3.84375 -1.375 C 4.546875 -1.375 5.171875 -1.578125 5.328125 -2.125 C 5.328125 -2.125 7.265625 -2.125 7.265625 -2.125 C 6.828125 -0.640625 5.453125 0.125 3.765625 0.125 C 1.625 0.125 0.3125 -1.265625 0.3125 -3.6875 C 0.3125 -6.21875 1.640625 -7.6875 3.8125 -7.6875 C 6.03125 -7.6875 7.34375 -6.109375 7.34375 -3.5 Z M 5.3125 -4.5625 C 5.203125 -5.640625 4.625 -6.1875 3.78125 -6.1875 C 2.90625 -6.1875 2.421875 -5.609375 2.296875 -4.5625 C 2.296875 -4.5625 5.3125 -4.5625 5.3125 -4.5625 Z M 5.3125 -4.5625 "/>
</g>
<g id="glyph-11-3-41010b56">
<path d="M 7.640625 0 C 7.640625 0 5.6875 0 5.6875 0 C 5.6875 0 5.6875 -4.65625 5.6875 -4.65625 C 5.6875 -5.5625 5.265625 -6.015625 4.421875 -6.015625 C 3.46875 -6.015625 2.84375 -5.4375 2.84375 -4.53125 C 2.84375 -4.53125 2.84375 0 2.84375 0 C 2.84375 0 0.875 0 0.875 0 C 0.875 0 0.875 -7.5625 0.875 -7.5625 C 0.875 -7.5625 2.84375 -7.5625 2.84375 -7.5625 C 2.84375 -7.5625 2.84375 -6.46875 2.84375 -6.46875 C 3.40625 -7.3125 4.09375 -7.6875 5.109375 -7.6875 C 6.71875 -7.6875 7.640625 -6.734375 7.640625 -5.0625 C 7.640625 -5.0625 7.640625 0 7.640625 0 Z M 7.640625 0 "/>
</g>
<g id="glyph-11-4-41010b56">
<path d="M 7.5 -7.5625 C 7.5 -7.5625 4.90625 0 4.90625 0 C 4.90625 0 2.84375 0 2.84375 0 C 2.84375 0 0.203125 -7.5625 0.203125 -7.5625 C 0.203125 -7.5625 2.265625 -7.5625 2.265625 -7.5625 C 2.265625 -7.5625 3.90625 -2.03125 3.90625 -2.03125 C 3.90625 -2.03125 5.4375 -7.5625 5.4375 -7.5625 C 5.4375 -7.5625 7.5 -7.5625 7.5 -7.5625 Z M 7.5 -7.5625 "/>
</g>
<g id="glyph-11-5-41010b56">
<path d="M 7.34375 0 C 7.34375 0 5.203125 0 5.203125 0 C 5.03125 -0.21875 4.984375 -0.5625 4.984375 -0.953125 C 4.296875 -0.234375 3.53125 0.125 2.6875 0.125 C 1.421875 0.125 0.390625 -0.578125 0.390625 -2.046875 C 0.390625 -3.421875 1.125 -4.0625 2.625 -4.328125 C 2.625 -4.328125 3.40625 -4.46875 3.40625 -4.46875 C 4.375 -4.640625 4.96875 -4.546875 4.96875 -5.34375 C 4.96875 -5.859375 4.59375 -6.109375 3.84375 -6.109375 C 2.875 -6.109375 2.546875 -5.859375 2.453125 -5.0625 C 2.453125 -5.0625 0.5625 -5.0625 0.5625 -5.0625 C 0.6875 -6.8125 1.75 -7.6875 3.796875 -7.6875 C 5.84375 -7.6875 6.890625 -6.90625 6.890625 -5.359375 C 6.890625 -5.359375 6.890625 -1.15625 6.890625 -1.15625 C 6.890625 -0.765625 6.984375 -0.5625 7.34375 -0.234375 C 7.34375 -0.234375 7.34375 0 7.34375 0 Z M 4.96875 -3.234375 C 4.96875 -3.234375 4.96875 -3.5625 4.96875 -3.5625 C 4.75 -3.453125 4.65625 -3.4375 4.140625 -3.328125 C 4.140625 -3.328125 3.46875 -3.203125 3.46875 -3.203125 C 2.65625 -3.046875 2.359375 -2.84375 2.359375 -2.265625 C 2.359375 -1.703125 2.765625 -1.453125 3.421875 -1.453125 C 4.40625 -1.453125 4.96875 -2.09375 4.96875 -3.234375 Z M 4.96875 -3.234375 "/>
</g>
<g id="glyph-11-6-41010b56">
<path d="M 2.890625 0 C 2.890625 0 0.9375 0 0.9375 0 C 0.9375 0 0.9375 -10.203125 0.9375 -10.203125 C 0.9375 -10.203125 2.890625 -10.203125 2.890625 -10.203125 C 2.890625 -10.203125 2.890625 0 2.890625 0 Z M 2.890625 0 "/>
</g>
<g id="glyph-11-7-41010b56">
<path d="M 7.578125 0 C 7.578125 0 5.609375 0 5.609375 0 C 5.609375 0 5.609375 -1 5.609375 -1 C 5.046875 -0.25 4.375 0.125 3.34375 0.125 C 1.734375 0.125 0.8125 -0.828125 0.8125 -2.484375 C 0.8125 -2.484375 0.8125 -7.5625 0.8125 -7.5625 C 0.8125 -7.5625 2.765625 -7.5625 2.765625 -7.5625 C 2.765625 -7.5625 2.765625 -2.890625 2.765625 -2.890625 C 2.765625 -1.984375 3.1875 -1.546875 4.03125 -1.546875 C 4.984375 -1.546875 5.609375 -2.125 5.609375 -3.03125 C 5.609375 -3.03125 5.609375 -7.5625 5.609375 -7.5625 C 5.609375 -7.5625 7.578125 -7.5625 7.578125 -7.5625 C 7.578125 -7.5625 7.578125 0 7.578125 0 Z M 7.578125 0 "/>
</g>
<g id="glyph-11-8-41010b56">
<path d="M 7.28125 -2.234375 C 7.28125 -0.71875 6.109375 0.125 3.96875 0.125 C 1.6875 0.125 0.46875 -0.734375 0.40625 -2.390625 C 0.40625 -2.390625 2.328125 -2.390625 2.328125 -2.390625 C 2.484375 -1.578125 2.96875 -1.40625 3.859375 -1.40625 C 4.78125 -1.40625 5.3125 -1.59375 5.3125 -2.0625 C 5.3125 -2.265625 5.15625 -2.421875 4.65625 -2.578125 C 4.65625 -2.578125 2.328125 -3.296875 2.328125 -3.296875 C 0.921875 -3.734375 0.671875 -4.234375 0.671875 -5.171875 C 0.671875 -6.71875 1.859375 -7.6875 3.78125 -7.6875 C 5.8125 -7.6875 7.046875 -6.71875 7.0625 -5.125 C 7.0625 -5.125 5.1875 -5.125 5.1875 -5.125 C 5.171875 -5.8125 4.703125 -6.140625 3.765625 -6.140625 C 3.078125 -6.140625 2.625 -5.859375 2.625 -5.453125 C 2.625 -5.140625 2.765625 -5.015625 3.3125 -4.859375 C 3.3125 -4.859375 5.796875 -4.140625 5.796875 -4.140625 C 6.796875 -3.84375 7.28125 -3.203125 7.28125 -2.34375 C 7.28125 -2.34375 7.28125 -2.234375 7.28125 -2.234375 Z M 7.28125 -2.234375 "/>
</g>
<g id="glyph-12-0-41010b56">
<path d="M 7.578125 0.25 C 7.578125 2.03125 6.265625 3.046875 3.96875 3.046875 C 1.90625 3.046875 0.65625 2.140625 0.625 0.90625 C 0.625 0.90625 2.65625 0.90625 2.65625 0.90625 C 2.8125 1.484375 3.296875 1.796875 4.046875 1.796875 C 5.03125 1.796875 5.71875 1.15625 5.71875 0.25 C 5.71875 0.25 5.71875 -0.875 5.71875 -0.875 C 4.984375 -0.140625 4.453125 0.125 3.5625 0.125 C 1.703125 0.125 0.46875 -1.34375 0.46875 -3.703125 C 0.46875 -6.03125 1.8125 -7.6875 3.609375 -7.6875 C 4.484375 -7.6875 5.125 -7.296875 5.71875 -6.390625 C 5.71875 -6.390625 5.71875 -7.5625 5.71875 -7.5625 C 5.71875 -7.5625 7.578125 -7.5625 7.578125 -7.5625 C 7.578125 -7.5625 7.578125 0.25 7.578125 0.25 Z M 5.734375 -3.71875 C 5.734375 -5.125 5.015625 -6.046875 4.03125 -6.046875 C 3.078125 -6.046875 2.4375 -5.15625 2.4375 -3.71875 C 2.4375 -2.359375 3.078125 -1.515625 4 -1.515625 C 5.03125 -1.515625 5.734375 -2.359375 5.734375 -3.71875 Z M 5.734375 -3.71875 "/>
</g>
<g id="glyph-13-0-41010b56">
<path d="M 6.890625 -2.203125 C 6.890625 -0.6875 5.625 0.21875 3.640625 0.21875 C 1.59375 0.21875 0.5625 -0.578125 0.515625 -2.40625 C 0.515625 -2.40625 1.828125 -2.40625 1.828125 -2.40625 C 2 -1.203125 2.625 -0.9375 3.75 -0.9375 C 4.84375 -0.9375 5.578125 -1.359375 5.578125 -2.09375 C 5.578125 -2.671875 5.234375 -2.921875 4.359375 -3.140625 C 4.359375 -3.140625 3.1875 -3.421875 3.1875 -3.421875 C 1.328125 -3.875 0.703125 -4.453125 0.703125 -5.6875 C 0.703125 -7.140625 1.890625 -8.078125 3.71875 -8.078125 C 5.53125 -8.078125 6.5625 -7.21875 6.5625 -5.671875 C 6.5625 -5.671875 5.25 -5.671875 5.25 -5.671875 C 5.21875 -6.5 4.6875 -6.9375 3.671875 -6.9375 C 2.65625 -6.9375 2.015625 -6.46875 2.015625 -5.75 C 2.015625 -5.1875 2.4375 -4.859375 3.46875 -4.625 C 3.46875 -4.625 4.671875 -4.328125 4.671875 -4.328125 C 6.21875 -3.953125 6.890625 -3.375 6.890625 -2.203125 Z M 6.890625 -2.203125 "/>
</g>
<g id="glyph-13-1-41010b56">
</g>
<g id="glyph-13-2-41010b56">
<path d="M 8.0625 -5.90625 C 8.0625 -4.75 7.453125 -4 6.5 -4 C 6.125 -4 5.65625 -4.15625 5.28125 -4.390625 C 5.28125 -4.390625 3.8125 -5.34375 3.8125 -5.34375 C 3.65625 -5.4375 3.3125 -5.546875 3.171875 -5.546875 C 2.75 -5.546875 2.4375 -5.203125 2.375 -4.375 C 2.375 -4.375 1.578125 -4.375 1.578125 -4.375 C 1.65625 -5.796875 2.21875 -6.5625 3.1875 -6.5625 C 3.46875 -6.5625 3.75 -6.46875 4 -6.3125 C 4 -6.3125 5.765625 -5.28125 5.765625 -5.28125 C 6.0625 -5.09375 6.296875 -5.03125 6.515625 -5.03125 C 7.0625 -5.03125 7.28125 -5.359375 7.28125 -6.15625 C 7.28125 -6.15625 8.0625 -6.15625 8.0625 -6.15625 C 8.0625 -6.15625 8.0625 -5.90625 8.0625 -5.90625 Z M 8.0625 -3.203125 C 8.0625 -2.0625 7.453125 -1.3125 6.5 -1.3125 C 6.125 -1.3125 5.65625 -1.453125 5.28125 -1.6875 C 5.28125 -1.6875 3.8125 -2.640625 3.8125 -2.640625 C 3.65625 -2.734375 3.3125 -2.84375 3.171875 -2.84375 C 2.75 -2.84375 2.4375 -2.5 2.375 -1.6875 C 2.375 -1.6875 1.578125 -1.6875 1.578125 -1.6875 C 1.65625 -3.09375 2.21875 -3.859375 3.1875 -3.859375 C 3.46875 -3.859375 3.75 -3.765625 4 -3.609375 C 4 -3.609375 5.765625 -2.578125 5.765625 -2.578125 C 6.0625 -2.40625 6.296875 -2.328125 6.515625 -2.328125 C 7.0625 -2.328125 7.28125 -2.65625 7.28125 -3.453125 C 7.28125 -3.453125 8.0625 -3.453125 8.0625 -3.453125 C 8.0625 -3.453125 8.0625 -3.203125 8.0625 -3.203125 Z M 8.0625 -3.203125 "/>
</g>
<g id="glyph-13-3-41010b56">
<path d="M 4.265625 -3.59375 C 4.265625 -3.59375 0.6875 -3.59375 0.6875 -3.59375 C 0.6875 -3.59375 0.6875 -4.6875 0.6875 -4.6875 C 0.6875 -4.6875 4.265625 -4.6875 4.265625 -4.6875 C 4.265625 -4.6875 4.265625 -3.59375 4.265625 -3.59375 Z M 4.265625 -3.59375 "/>
</g>
<g id="glyph-13-4-41010b56">
<path d="M 5.203125 0 C 5.203125 0 3.890625 0 3.890625 0 C 3.890625 0 3.890625 -7.578125 3.890625 -7.578125 C 3.890625 -7.578125 1.53125 -7.578125 1.53125 -7.578125 C 1.53125 -7.578125 1.53125 -8.515625 1.53125 -8.515625 C 3.5625 -8.78125 3.875 -9 4.328125 -10.640625 C 4.328125 -10.640625 5.203125 -10.640625 5.203125 -10.640625 C 5.203125 -10.640625 5.203125 0 5.203125 0 Z M 5.203125 0 "/>
</g>
<g id="glyph-13-5-41010b56">
<path d="M 7.609375 -5.109375 C 7.609375 -1.625 6.375 0.21875 4.125 0.21875 C 1.84375 0.21875 0.640625 -1.625 0.640625 -5.203125 C 0.640625 -8.78125 1.828125 -10.640625 4.125 -10.640625 C 6.4375 -10.640625 7.609375 -8.8125 7.609375 -5.109375 Z M 6.25 -5.234375 C 6.25 -8.078125 5.546875 -9.46875 4.125 -9.46875 C 2.703125 -9.46875 2 -8.09375 2 -5.1875 C 2 -2.28125 2.703125 -0.875 4.09375 -0.875 C 5.5625 -0.875 6.25 -2.21875 6.25 -5.234375 Z M 6.25 -5.234375 "/>
</g>
<g id="glyph-13-6-41010b56">
<path d="M 2.859375 0 C 2.859375 0 1.3125 0 1.3125 0 C 1.3125 0 1.3125 -1.5625 1.3125 -1.5625 C 1.3125 -1.5625 2.859375 -1.5625 2.859375 -1.5625 C 2.859375 -1.5625 2.859375 0 2.859375 0 Z M 2.859375 0 "/>
</g>
<g id="glyph-13-7-41010b56">
<path d="M 7.796875 -9.296875 C 5.5625 -6.640625 4.0625 -3.4375 3.484375 0 C 3.484375 0 2.0625 0 2.0625 0 C 2.8125 -3.328125 4.3125 -6.4375 6.4375 -9.109375 C 6.4375 -9.109375 0.6875 -9.109375 0.6875 -9.109375 C 0.6875 -9.109375 0.6875 -10.40625 0.6875 -10.40625 C 0.6875 -10.40625 7.796875 -10.40625 7.796875 -10.40625 C 7.796875 -10.40625 7.796875 -9.296875 7.796875 -9.296875 Z M 7.796875 -9.296875 "/>
</g>
<g id="glyph-13-8-41010b56">
<path d="M 7.640625 -5.5625 C 7.640625 -1.890625 6.296875 0.21875 3.8125 0.21875 C 2.1875 0.21875 1.046875 -0.8125 0.796875 -2.546875 C 0.796875 -2.546875 2.109375 -2.546875 2.109375 -2.546875 C 2.328125 -1.53125 2.96875 -0.9375 3.90625 -0.9375 C 5.421875 -0.9375 6.25 -2.390625 6.265625 -4.984375 C 5.578125 -4.15625 4.84375 -3.796875 3.84375 -3.796875 C 1.921875 -3.796875 0.5625 -5.125 0.5625 -7.109375 C 0.5625 -9.1875 2.03125 -10.640625 4.046875 -10.640625 C 6.484375 -10.640625 7.640625 -8.890625 7.640625 -5.5625 Z M 6.1875 -7.140625 C 6.1875 -8.515625 5.265625 -9.484375 4.03125 -9.484375 C 2.8125 -9.484375 1.921875 -8.5625 1.921875 -7.21875 C 1.921875 -5.796875 2.71875 -4.96875 3.984375 -4.96875 C 5.28125 -4.96875 6.1875 -5.828125 6.1875 -7.140625 Z M 6.1875 -7.140625 "/>
</g>
<g id="glyph-13-9-41010b56">
<path d="M 7.796875 -2.546875 C 7.796875 -2.546875 6.21875 -2.546875 6.21875 -2.546875 C 6.21875 -2.546875 6.21875 0 6.21875 0 C 6.21875 0 4.90625 0 4.90625 0 C 4.90625 0 4.90625 -2.546875 4.90625 -2.546875 C 4.90625 -2.546875 0.421875 -2.546875 0.421875 -2.546875 C 0.421875 -2.546875 0.421875 -3.9375 0.421875 -3.9375 C 0.421875 -3.9375 5.25 -10.640625 5.25 -10.640625 C 5.25 -10.640625 6.21875 -10.640625 6.21875 -10.640625 C 6.21875 -10.640625 6.21875 -3.734375 6.21875 -3.734375 C 6.21875 -3.734375 7.796875 -3.734375 7.796875 -3.734375 C 7.796875 -3.734375 7.796875 -2.546875 7.796875 -2.546875 Z M 4.90625 -3.734375 C 4.90625 -3.734375 4.90625 -8.390625 4.90625 -8.390625 C 4.90625 -8.390625 1.578125 -3.734375 1.578125 -3.734375 C 1.578125 -3.734375 4.90625 -3.734375 4.90625 -3.734375 Z M 4.90625 -3.734375 "/>
</g>
<g id="glyph-13-10-41010b56">
<path d="M 7.59375 -3.09375 C 7.59375 -1.078125 6.1875 0.21875 3.984375 0.21875 C 1.8125 0.21875 0.640625 -0.84375 0.484375 -3.203125 C 0.484375 -3.203125 1.796875 -3.203125 1.796875 -3.203125 C 1.890625 -1.671875 2.59375 -0.9375 4.03125 -0.9375 C 5.421875 -0.9375 6.234375 -1.734375 6.234375 -3.078125 C 6.234375 -4.265625 5.484375 -4.953125 4.03125 -4.953125 C 4.03125 -4.953125 3.3125 -4.953125 3.3125 -4.953125 C 3.3125 -4.953125 3.3125 -6.0625 3.3125 -6.0625 C 5.4375 -6.0625 5.921875 -6.53125 5.921875 -7.671875 C 5.921875 -8.796875 5.21875 -9.484375 4.046875 -9.484375 C 2.703125 -9.484375 2.0625 -8.78125 2.03125 -7.203125 C 2.03125 -7.203125 0.703125 -7.203125 0.703125 -7.203125 C 0.75 -9.46875 1.890625 -10.640625 4.03125 -10.640625 C 6.0625 -10.640625 7.28125 -9.546875 7.28125 -7.703125 C 7.28125 -6.640625 6.78125 -5.953125 5.796875 -5.5625 C 7.0625 -5.125 7.59375 -4.375 7.59375 -3.09375 Z M 7.59375 -3.09375 "/>
</g>
<g id="glyph-13-11-41010b56">
<path d="M 7.6875 -3.53125 C 7.6875 -1.28125 6.1875 0.21875 4.046875 0.21875 C 2.15625 0.21875 0.953125 -0.609375 0.53125 -2.734375 C 0.53125 -2.734375 1.84375 -2.734375 1.84375 -2.734375 C 2.15625 -1.53125 2.859375 -0.9375 4.015625 -0.9375 C 5.453125 -0.9375 6.34375 -1.8125 6.34375 -3.34375 C 6.34375 -4.921875 5.4375 -5.828125 4.015625 -5.828125 C 3.1875 -5.828125 2.6875 -5.578125 2.0625 -4.84375 C 2.0625 -4.84375 0.859375 -4.84375 0.859375 -4.84375 C 0.859375 -4.84375 1.65625 -10.40625 1.65625 -10.40625 C 1.65625 -10.40625 7.140625 -10.40625 7.140625 -10.40625 C 7.140625 -10.40625 7.140625 -9.109375 7.140625 -9.109375 C 7.140625 -9.109375 2.71875 -9.109375 2.71875 -9.109375 C 2.71875 -9.109375 2.296875 -6.359375 2.296875 -6.359375 C 2.90625 -6.8125 3.515625 -7 4.265625 -7 C 6.296875 -7 7.6875 -5.625 7.6875 -3.53125 Z M 7.6875 -3.53125 "/>
</g>
<g id="glyph-13-12-41010b56">
<path d="M 7.6875 -3 C 7.6875 -1.0625 6.21875 0.21875 4.125 0.21875 C 2.03125 0.21875 0.5625 -1.0625 0.5625 -3.015625 C 0.5625 -4.1875 1.15625 -5.015625 2.375 -5.59375 C 1.296875 -6.265625 0.9375 -6.8125 0.9375 -7.796875 C 0.9375 -9.46875 2.25 -10.640625 4.125 -10.640625 C 6.015625 -10.640625 7.3125 -9.46875 7.3125 -7.796875 C 7.3125 -6.796875 6.953125 -6.25 5.859375 -5.59375 C 7.09375 -5.015625 7.6875 -4.1875 7.6875 -3 Z M 5.96875 -7.765625 C 5.96875 -8.8125 5.25 -9.46875 4.125 -9.46875 C 3.015625 -9.46875 2.28125 -8.8125 2.28125 -7.78125 C 2.28125 -6.78125 3.015625 -6.125 4.125 -6.125 C 5.234375 -6.125 5.96875 -6.78125 5.96875 -7.765625 Z M 6.34375 -2.984375 C 6.34375 -4.234375 5.4375 -5.015625 4.125 -5.015625 C 2.8125 -5.015625 1.90625 -4.234375 1.90625 -2.984375 C 1.90625 -1.734375 2.8125 -0.9375 4.09375 -0.9375 C 5.4375 -0.9375 6.34375 -1.71875 6.34375 -2.984375 Z M 6.34375 -2.984375 "/>
</g>
<g id="glyph-13-13-41010b56">
<path d="M 7.6875 -3.296875 C 7.6875 -1.21875 6.234375 0.21875 4.21875 0.21875 C 1.78125 0.21875 0.640625 -1.53125 0.640625 -4.84375 C 0.640625 -8.546875 1.984375 -10.640625 4.453125 -10.640625 C 6.078125 -10.640625 7.21875 -9.59375 7.46875 -7.859375 C 7.46875 -7.859375 6.15625 -7.859375 6.15625 -7.859375 C 5.9375 -8.875 5.296875 -9.46875 4.359375 -9.46875 C 2.84375 -9.46875 2.015625 -8.03125 2 -5.4375 C 2.5625 -6.203125 3.390625 -6.609375 4.4375 -6.609375 C 6.34375 -6.609375 7.6875 -5.28125 7.6875 -3.296875 Z M 6.34375 -3.1875 C 6.34375 -4.625 5.546875 -5.4375 4.28125 -5.4375 C 2.96875 -5.4375 2.0625 -4.59375 2.0625 -3.265625 C 2.0625 -1.90625 3 -0.9375 4.234375 -0.9375 C 5.4375 -0.9375 6.34375 -1.859375 6.34375 -3.1875 Z M 6.34375 -3.1875 "/>
</g>
</g>
</defs>
<rect x="-60" y="-45" width="720" height="540" fill="rgb(100%, 100%, 100%)" fill-opacity="1"/>
<path fill-rule="nonzero" fill="rgb(100%, 100%, 100%)" fill-opacity="1" d="M 79 391 L 584 391 L 584 36 L 79 36 Z M 79 391 "/>
<path fill="none" stroke-width="1" stroke-linecap="butt" stroke-linejoin="miter" stroke="rgb(0%, 0%, 0%)" stroke-opacity="0.12" stroke-miterlimit="1.154701" d="M 193.773438 391 L 193.773438 36 "/>
<path fill="none" stroke-width="1" stroke-linecap="butt" stroke-linejoin="miter" stroke="rgb(0%, 0%, 0%)" stroke-opacity="0.12" stroke-miterlimit="1.154701" d="M 377.410156 391 L 377.410156 36 "/>
<path fill="none" stroke-width="1" stroke-linecap="butt" stroke-linejoin="miter" stroke="rgb(0%, 0%, 0%)" stroke-opacity="0.12" stroke-miterlimit="1.154701" d="M 561.046875 391 L 561.046875 36 "/>
<path fill="none" stroke-width="1" stroke-linecap="butt" stroke-linejoin="miter" stroke="rgb(0%, 0%, 0%)" stroke-opacity="0.12" stroke-miterlimit="1.154701" d="M 79 331.871094 L 584 331.871094 "/>
<path fill="none" stroke-width="1" stroke-linecap="butt" stroke-linejoin="miter" stroke="rgb(0%, 0%, 0%)" stroke-opacity="0.12" stroke-miterlimit="1.154701" d="M 79 224.328125 L 584 224.328125 "/>
<path fill="none" stroke-width="1" stroke-linecap="butt" stroke-linejoin="miter" stroke="rgb(0%, 0%, 0%)" stroke-opacity="0.12" stroke-miterlimit="1.154701" d="M 79 116.789063 L 584 116.789063 "/>
<g fill="rgb(0%, 0%, 0%)" fill-opacity="1">
<use xlink:href="#glyph-0-0-41010b56" x="326.446008" y="431.567999"/>
</g>
<g fill="rgb(0%, 0%, 0%)" fill-opacity="1">
<use xlink:href="#glyph-0-1-41010b56" x="185.988725" y="412.257999"/>
</g>
<g fill="rgb(0%, 0%, 0%)" fill-opacity="1">
<use xlink:href="#glyph-0-2-41010b56" x="193.772725" y="412.257999"/>
</g>
<g fill="rgb(0%, 0%, 0%)" fill-opacity="1">
<use xlink:href="#glyph-0-3-41010b56" x="369.625097" y="412.257999"/>
</g>
<g fill="rgb(0%, 0%, 0%)" fill-opacity="1">
<use xlink:href="#glyph-0-2-41010b56" x="377.409097" y="412.257999"/>
</g>
<g fill="rgb(0%, 0%, 0%)" fill-opacity="1">
<use xlink:href="#glyph-0-4-41010b56" x="553.261485" y="412.257999"/>
</g>
<g fill="rgb(0%, 0%, 0%)" fill-opacity="1">
<use xlink:href="#glyph-0-2-41010b56" x="561.045485" y="412.257999"/>
</g>
<g fill="rgb(0%, 0%, 0%)" fill-opacity="1">
<use xlink:href="#glyph-1-0-41010b56" x="28.535202" y="227.079146"/>
</g>
<g fill="rgb(0%, 0%, 0%)" fill-opacity="1">
<use xlink:href="#glyph-2-0-41010b56" x="28.535202" y="223.439145"/>
</g>
<g fill="rgb(0%, 0%, 0%)" fill-opacity="1">
<use xlink:href="#glyph-2-1-41010b56" x="28.535202" y="219.799146"/>
</g>
<g fill="rgb(0%, 0%, 0%)" fill-opacity="1">
<use xlink:href="#glyph-3-0-41010b56" x="28.535203" y="212.813146"/>
</g>
<g fill="rgb(0%, 0%, 0%)" fill-opacity="1">
<use xlink:href="#glyph-1-0-41010b56" x="28.535203" y="209.173147"/>
</g>
<g fill="rgb(0%, 0%, 0%)" fill-opacity="1">
<use xlink:href="#glyph-4-0-41010b56" x="28.535203" y="205.533147"/>
</g>
<g fill="rgb(0%, 0%, 0%)" fill-opacity="1">
<use xlink:href="#glyph-0-5-41010b56" x="36.836961" y="337.519987"/>
</g>
<g fill="rgb(0%, 0%, 0%)" fill-opacity="1">
<use xlink:href="#glyph-0-2-41010b56" x="44.620961" y="337.519987"/>
</g>
<g fill="rgb(0%, 0%, 0%)" fill-opacity="1">
<use xlink:href="#glyph-5-0-41010b56" x="53.328962" y="331.919987"/>
</g>
<g fill="rgb(0%, 0%, 0%)" fill-opacity="1">
<use xlink:href="#glyph-6-0-41010b56" x="58.725122" y="331.919987"/>
</g>
<g fill="rgb(0%, 0%, 0%)" fill-opacity="1">
<use xlink:href="#glyph-5-1-41010b56" x="63.862562" y="331.919987"/>
</g>
<g fill="rgb(0%, 0%, 0%)" fill-opacity="1">
<use xlink:href="#glyph-0-5-41010b56" x="41.974401" y="229.97874"/>
</g>
<g fill="rgb(0%, 0%, 0%)" fill-opacity="1">
<use xlink:href="#glyph-0-2-41010b56" x="49.758401" y="229.97874"/>
</g>
<g fill="rgb(0%, 0%, 0%)" fill-opacity="1">
<use xlink:href="#glyph-6-1-41010b56" x="58.466402" y="224.37874"/>
</g>
<g fill="rgb(0%, 0%, 0%)" fill-opacity="1">
<use xlink:href="#glyph-5-2-41010b56" x="63.862562" y="224.37874"/>
</g>
<g fill="rgb(0%, 0%, 0%)" fill-opacity="1">
<use xlink:href="#glyph-0-5-41010b56" x="47.370561" y="122.437493"/>
</g>
<g fill="rgb(0%, 0%, 0%)" fill-opacity="1">
<use xlink:href="#glyph-7-0-41010b56" x="55.154561" y="122.437493"/>
</g>
<g fill="rgb(0%, 0%, 0%)" fill-opacity="1">
<use xlink:href="#glyph-5-1-41010b56" x="63.862562" y="116.837493"/>
</g>
<g fill="rgb(0%, 0%, 0%)" fill-opacity="1">
<use xlink:href="#glyph-8-0-41010b56" x="128.829074" y="28.94799"/>
</g>
<g fill="rgb(0%, 0%, 0%)" fill-opacity="1">
<use xlink:href="#glyph-8-1-41010b56" x="137.383075" y="28.94799"/>
</g>
<g fill="rgb(0%, 0%, 0%)" fill-opacity="1">
<use xlink:href="#glyph-8-2-41010b56" x="145.167072" y="28.94799"/>
</g>
<g fill="rgb(0%, 0%, 0%)" fill-opacity="1">
<use xlink:href="#glyph-8-3-41010b56" x="153.721073" y="28.94799"/>
</g>
<g fill="rgb(0%, 0%, 0%)" fill-opacity="1">
<use xlink:href="#glyph-8-4-41010b56" x="157.613071" y="28.94799"/>
</g>
<g fill="rgb(0%, 0%, 0%)" fill-opacity="1">
<use xlink:href="#glyph-8-1-41010b56" x="170.059071" y="28.94799"/>
</g>
<g fill="rgb(0%, 0%, 0%)" fill-opacity="1">
<use xlink:href="#glyph-8-5-41010b56" x="177.843083" y="28.94799"/>
</g>
<g fill="rgb(0%, 0%, 0%)" fill-opacity="1">
<use xlink:href="#glyph-8-6-41010b56" x="186.397069" y="28.94799"/>
</g>
<g fill="rgb(0%, 0%, 0%)" fill-opacity="1">
<use xlink:href="#glyph-8-7-41010b56" x="194.951085" y="28.94799"/>
</g>
<g fill="rgb(0%, 0%, 0%)" fill-opacity="1">
<use xlink:href="#glyph-8-8-41010b56" x="198.843083" y="28.94799"/>
</g>
<g fill="rgb(0%, 0%, 0%)" fill-opacity="1">
<use xlink:href="#glyph-8-2-41010b56" x="203.505078" y="28.94799"/>
</g>
<g fill="rgb(0%, 0%, 0%)" fill-opacity="1">
<use xlink:href="#glyph-8-9-41010b56" x="212.05908" y="28.94799"/>
</g>
<g fill="rgb(0%, 0%, 0%)" fill-opacity="1">
<use xlink:href="#glyph-8-10-41010b56" x="220.613081" y="28.94799"/>
</g>
<g fill="rgb(0%, 0%, 0%)" fill-opacity="1">
<use xlink:href="#glyph-8-11-41010b56" x="228.397077" y="28.94799"/>
</g>
<g fill="rgb(0%, 0%, 0%)" fill-opacity="1">
<use xlink:href="#glyph-8-3-41010b56" x="236.181074" y="28.94799"/>
</g>
<g fill="rgb(0%, 0%, 0%)" fill-opacity="1">
<use xlink:href="#glyph-8-12-41010b56" x="240.073073" y="28.94799"/>
</g>
<g fill="rgb(0%, 0%, 0%)" fill-opacity="1">
<use xlink:href="#glyph-8-13-41010b56" x="244.735075" y="28.94799"/>
</g>
<g fill="rgb(0%, 0%, 0%)" fill-opacity="1">
<use xlink:href="#glyph-8-14-41010b56" x="253.289076" y="28.94799"/>
</g>
<g fill="rgb(0%, 0%, 0%)" fill-opacity="1">
<use xlink:href="#glyph-8-3-41010b56" x="258.735083" y="28.94799"/>
</g>
<g fill="rgb(0%, 0%, 0%)" fill-opacity="1">
<use xlink:href="#glyph-8-7-41010b56" x="262.627082" y="28.94799"/>
</g>
<g fill="rgb(0%, 0%, 0%)" fill-opacity="1">
<use xlink:href="#glyph-8-6-41010b56" x="266.51908" y="28.94799"/>
</g>
<g fill="rgb(0%, 0%, 0%)" fill-opacity="1">
<use xlink:href="#glyph-8-15-41010b56" x="275.073081" y="28.94799"/>
</g>
<g fill="rgb(0%, 0%, 0%)" fill-opacity="1">
<use xlink:href="#glyph-8-14-41010b56" x="282.857078" y="28.94799"/>
</g>
<g fill="rgb(0%, 0%, 0%)" fill-opacity="1">
<use xlink:href="#glyph-8-10-41010b56" x="288.303077" y="28.94799"/>
</g>
<g fill="rgb(0%, 0%, 0%)" fill-opacity="1">
<use xlink:href="#glyph-8-1-41010b56" x="296.087074" y="28.94799"/>
</g>
<g fill="rgb(0%, 0%, 0%)" fill-opacity="1">
<use xlink:href="#glyph-8-11-41010b56" x="303.871071" y="28.94799"/>
</g>
<g fill="rgb(0%, 0%, 0%)" fill-opacity="1">
<use xlink:href="#glyph-8-7-41010b56" x="311.655067" y="28.94799"/>
</g>
<g fill="rgb(0%, 0%, 0%)" fill-opacity="1">
<use xlink:href="#glyph-8-6-41010b56" x="315.547066" y="28.94799"/>
</g>
<g fill="rgb(0%, 0%, 0%)" fill-opacity="1">
<use xlink:href="#glyph-8-5-41010b56" x="324.101067" y="28.94799"/>
</g>
<g fill="rgb(0%, 0%, 0%)" fill-opacity="1">
<use xlink:href="#glyph-8-3-41010b56" x="332.655068" y="28.94799"/>
</g>
<g fill="rgb(0%, 0%, 0%)" fill-opacity="1">
<use xlink:href="#glyph-8-14-41010b56" x="336.547066" y="28.94799"/>
</g>
<g fill="rgb(0%, 0%, 0%)" fill-opacity="1">
<use xlink:href="#glyph-8-10-41010b56" x="341.993066" y="28.94799"/>
</g>
<g fill="rgb(0%, 0%, 0%)" fill-opacity="1">
<use xlink:href="#glyph-8-11-41010b56" x="349.777062" y="28.94799"/>
</g>
<g fill="rgb(0%, 0%, 0%)" fill-opacity="1">
<use xlink:href="#glyph-8-13-41010b56" x="357.561059" y="28.94799"/>
</g>
<g fill="rgb(0%, 0%, 0%)" fill-opacity="1">
<use xlink:href="#glyph-8-16-41010b56" x="366.11506" y="28.94799"/>
</g>
<g fill="rgb(0%, 0%, 0%)" fill-opacity="1">
<use xlink:href="#glyph-8-2-41010b56" x="370.007059" y="28.94799"/>
</g>
<g fill="rgb(0%, 0%, 0%)" fill-opacity="1">
<use xlink:href="#glyph-8-8-41010b56" x="378.56106" y="28.94799"/>
</g>
<g fill="rgb(0%, 0%, 0%)" fill-opacity="1">
<use xlink:href="#glyph-8-7-41010b56" x="383.223062" y="28.94799"/>
</g>
<g fill="rgb(0%, 0%, 0%)" fill-opacity="1">
<use xlink:href="#glyph-8-13-41010b56" x="387.115061" y="28.94799"/>
</g>
<g fill="rgb(0%, 0%, 0%)" fill-opacity="1">
<use xlink:href="#glyph-8-6-41010b56" x="395.669046" y="28.94799"/>
</g>
<g fill="rgb(0%, 0%, 0%)" fill-opacity="1">
<use xlink:href="#glyph-8-17-41010b56" x="404.223032" y="28.94799"/>
</g>
<g fill="rgb(0%, 0%, 0%)" fill-opacity="1">
<use xlink:href="#glyph-8-3-41010b56" x="408.115031" y="28.94799"/>
</g>
<g fill="rgb(0%, 0%, 0%)" fill-opacity="1">
<use xlink:href="#glyph-8-12-41010b56" x="412.007029" y="28.94799"/>
</g>
<g fill="rgb(0%, 0%, 0%)" fill-opacity="1">
<use xlink:href="#glyph-8-7-41010b56" x="416.669016" y="28.94799"/>
</g>
<g fill="rgb(0%, 0%, 0%)" fill-opacity="1">
<use xlink:href="#glyph-8-14-41010b56" x="420.561015" y="28.94799"/>
</g>
<g fill="rgb(0%, 0%, 0%)" fill-opacity="1">
<use xlink:href="#glyph-8-11-41010b56" x="426.007029" y="28.94799"/>
</g>
<g fill="rgb(0%, 0%, 0%)" fill-opacity="1">
<use xlink:href="#glyph-8-8-41010b56" x="433.791026" y="28.94799"/>
</g>
<g fill="rgb(0%, 0%, 0%)" fill-opacity="1">
<use xlink:href="#glyph-8-3-41010b56" x="438.453014" y="28.94799"/>
</g>
<g fill="rgb(0%, 0%, 0%)" fill-opacity="1">
<use xlink:href="#glyph-8-18-41010b56" x="442.345012" y="28.94799"/>
</g>
<g fill="rgb(0%, 0%, 0%)" fill-opacity="1">
<use xlink:href="#glyph-8-3-41010b56" x="450.129009" y="28.94799"/>
</g>
<g fill="rgb(0%, 0%, 0%)" fill-opacity="1">
<use xlink:href="#glyph-8-10-41010b56" x="454.021007" y="28.94799"/>
</g>
<g fill="rgb(0%, 0%, 0%)" fill-opacity="1">
<use xlink:href="#glyph-8-7-41010b56" x="461.805004" y="28.94799"/>
</g>
<g fill="rgb(0%, 0%, 0%)" fill-opacity="1">
<use xlink:href="#glyph-8-5-41010b56" x="465.697002" y="28.94799"/>
</g>
<g fill="rgb(0%, 0%, 0%)" fill-opacity="1">
<use xlink:href="#glyph-8-10-41010b56" x="474.250988" y="28.94799"/>
</g>
<g fill="rgb(0%, 0%, 0%)" fill-opacity="1">
<use xlink:href="#glyph-8-6-41010b56" x="482.034985" y="28.94799"/>
</g>
<g fill="rgb(0%, 0%, 0%)" fill-opacity="1">
<use xlink:href="#glyph-8-19-41010b56" x="490.588971" y="28.94799"/>
</g>
<g fill="rgb(0%, 0%, 0%)" fill-opacity="1">
<use xlink:href="#glyph-9-0-41010b56" x="498.372967" y="28.94799"/>
</g>
<g fill="rgb(0%, 0%, 0%)" fill-opacity="1">
<use xlink:href="#glyph-10-0-41010b56" x="506.156964" y="28.94799"/>
</g>
<g fill="rgb(0%, 0%, 0%)" fill-opacity="1">
<use xlink:href="#glyph-8-2-41010b56" x="510.048963" y="28.94799"/>
</g>
<g fill="rgb(0%, 0%, 0%)" fill-opacity="1">
<use xlink:href="#glyph-8-10-41010b56" x="518.602948" y="28.94799"/>
</g>
<g fill="rgb(0%, 0%, 0%)" fill-opacity="1">
<use xlink:href="#glyph-8-11-41010b56" x="526.386945" y="28.94799"/>
</g>
<path fill-rule="nonzero" fill="rgb(0%, 44.705883%, 69.803923%)" fill-opacity="1" d="M 100.359375 188.65625 L 101.953125 190.25 L 103.546875 188.65625 L 105.132813 190.242188 L 103.539063 191.835938 L 105.132813 193.429688 L 103.546875 195.011719 L 101.953125 193.417969 L 100.359375 195.011719 L 98.777344 193.429688 L 100.371094 191.835938 L 98.777344 190.242188 Z M 100.359375 188.65625 "/>
<path fill-rule="nonzero" fill="rgb(0%, 44.705883%, 69.803923%)" fill-opacity="1" d="M 146.269531 286.191406 L 147.863281 287.785156 L 149.457031 286.191406 L 151.042969 287.773438 L 149.449219 289.367188 L 151.042969 290.960938 L 149.457031 292.546875 L 147.863281 290.953125 L 146.269531 292.546875 L 144.683594 290.960938 L 146.277344 289.367188 L 144.683594 287.773438 Z M 146.269531 286.191406 "/>
<path fill-rule="nonzero" fill="rgb(0%, 44.705883%, 69.803923%)" fill-opacity="1" d="M 192.179688 371.683594 L 193.773438 373.277344 L 195.367188 371.683594 L 196.953125 373.269531 L 195.355469 374.863281 L 196.953125 376.457031 L 195.367188 378.042969 L 193.773438 376.449219 L 192.179688 378.042969 L 190.59375 376.457031 L 192.1875 374.863281 L 190.59375 373.269531 Z M 192.179688 371.683594 "/>
<path fill-rule="nonzero" fill="rgb(0%, 44.705883%, 69.803923%)" fill-opacity="1" d="M 238.085938 362.78125 L 239.683594 364.375 L 241.277344 362.78125 L 242.859375 364.367188 L 241.265625 365.960938 L 242.859375 367.554688 L 241.277344 369.140625 L 239.683594 367.546875 L 238.085938 369.140625 L 236.503906 367.554688 L 238.097656 365.960938 L 236.503906 364.367188 Z M 238.085938 362.78125 "/>
<path fill-rule="nonzero" fill="rgb(0%, 44.705883%, 69.803923%)" fill-opacity="1" d="M 283.996094 368.457031 L 285.589844 370.050781 L 287.183594 368.457031 L 288.769531 370.039063 L 287.175781 371.632813 L 288.769531 373.230469 L 287.183594 374.8125 L 285.589844 373.21875 L 283.996094 374.8125 L 282.410156 373.230469 L 284.007813 371.632813 L 282.410156 370.039063 Z M 283.996094 368.457031 "/>
<path fill-rule="nonzero" fill="rgb(0%, 44.705883%, 69.803923%)" fill-opacity="1" d="M 329.90625 361.855469 L 331.5 363.449219 L 333.09375 361.855469 L 334.679688 363.4375 L 333.085938 365.035156 L 334.679688 366.628906 L 333.09375 368.210938 L 331.5 366.617188 L 329.90625 368.210938 L 328.320313 366.628906 L 329.914063 365.035156 L 328.320313 363.4375 Z M 329.90625 361.855469 "/>
<path fill-rule="nonzero" fill="rgb(0%, 44.705883%, 69.803923%)" fill-opacity="1" d="M 375.816406 343.902344 L 377.410156 345.5 L 379.003906 343.902344 L 380.585938 345.488281 L 378.992188 347.082031 L 380.585938 348.675781 L 379.003906 350.261719 L 377.410156 348.667969 L 375.816406 350.261719 L 374.230469 348.675781 L 375.824219 347.082031 L 374.230469 345.488281 Z M 375.816406 343.902344 "/>
<path fill-rule="nonzero" fill="rgb(0%, 44.705883%, 69.803923%)" fill-opacity="1" d="M 421.722656 340.421875 L 423.316406 342.015625 L 424.914063 340.421875 L 426.496094 342.007813 L 424.902344 343.601563 L 426.496094 345.195313 L 424.914063 346.78125 L 423.316406 345.183594 L 421.722656 346.78125 L 420.140625 345.195313 L 421.734375 343.601563 L 420.140625 342.007813 Z M 421.722656 340.421875 "/>
<path fill-rule="nonzero" fill="rgb(0%, 44.705883%, 69.803923%)" fill-opacity="1" d="M 467.632813 362.53125 L 469.226563 364.125 L 470.820313 362.53125 L 472.40625 364.113281 L 470.8125 365.710938 L 472.40625 367.304688 L 470.820313 368.886719 L 469.226563 367.292969 L 467.632813 368.886719 L 466.046875 367.304688 L 467.644531 365.710938 L 466.046875 364.113281 Z M 467.632813 362.53125 "/>
<path fill-rule="nonzero" fill="rgb(0%, 44.705883%, 69.803923%)" fill-opacity="1" d="M 513.542969 332.449219 L 515.136719 334.042969 L 516.730469 332.449219 L 518.316406 334.03125 L 516.722656 335.625 L 518.316406 337.21875 L 516.730469 338.804688 L 515.136719 337.210938 L 513.542969 338.804688 L 511.957031 337.21875 L 513.550781 335.625 L 511.957031 334.03125 Z M 513.542969 332.449219 "/>
<path fill-rule="nonzero" fill="rgb(0%, 44.705883%, 69.803923%)" fill-opacity="1" d="M 559.453125 325.648438 L 561.046875 327.242188 L 562.640625 325.648438 L 564.222656 327.234375 L 562.628906 328.828125 L 564.222656 330.421875 L 562.640625 332.007813 L 561.046875 330.414063 L 559.453125 332.007813 L 557.867188 330.421875 L 559.460938 328.828125 L 557.867188 327.234375 Z M 559.453125 325.648438 "/>
<path fill-rule="nonzero" fill="rgb(90.196079%, 62.352943%, 0%)" fill-opacity="1" d="M 100.359375 154.679688 L 101.953125 156.273438 L 103.546875 154.679688 L 105.132813 156.261719 L 103.539063 157.855469 L 105.132813 159.453125 L 103.546875 161.035156 L 101.953125 159.441406 L 100.359375 161.035156 L 98.777344 159.453125 L 100.371094 157.855469 L 98.777344 156.261719 Z M 100.359375 154.679688 "/>
<path fill-rule="nonzero" fill="rgb(90.196079%, 62.352943%, 0%)" fill-opacity="1" d="M 146.269531 230.765625 L 147.863281 232.359375 L 149.457031 230.765625 L 151.042969 232.347656 L 149.449219 233.941406 L 151.042969 235.535156 L 149.457031 237.121094 L 147.863281 235.527344 L 146.269531 237.121094 L 144.683594 235.535156 L 146.277344 233.941406 L 144.683594 232.347656 Z M 146.269531 230.765625 "/>
<path fill-rule="nonzero" fill="rgb(90.196079%, 62.352943%, 0%)" fill-opacity="1" d="M 192.179688 330.382813 L 193.773438 331.976563 L 195.367188 330.382813 L 196.953125 331.96875 L 195.355469 333.5625 L 196.953125 335.15625 L 195.367188 336.738281 L 193.773438 335.144531 L 192.179688 336.738281 L 190.59375 335.15625 L 192.1875 333.5625 L 190.59375 331.96875 Z M 192.179688 330.382813 "/>
<path fill-rule="nonzero" fill="rgb(90.196079%, 62.352943%, 0%)" fill-opacity="1" d="M 238.085938 362.347656 L 239.683594 363.945313 L 241.277344 362.347656 L 242.859375 363.933594 L 241.265625 365.527344 L 242.859375 367.121094 L 241.277344 368.707031 L 239.683594 367.113281 L 238.085938 368.707031 L 236.503906 367.121094 L 238.097656 365.527344 L 236.503906 363.933594 Z M 238.085938 362.347656 "/>
<path fill-rule="nonzero" fill="rgb(90.196079%, 62.352943%, 0%)" fill-opacity="1" d="M 283.996094 359.976563 L 285.589844 361.570313 L 287.183594 359.976563 L 288.769531 361.5625 L 287.175781 363.15625 L 288.769531 364.75 L 287.183594 366.332031 L 285.589844 364.738281 L 283.996094 366.332031 L 282.410156 364.75 L 284.007813 363.15625 L 282.410156 361.5625 Z M 283.996094 359.976563 "/>
<path fill-rule="nonzero" fill="rgb(90.196079%, 62.352943%, 0%)" fill-opacity="1" d="M 329.90625 342.695313 L 331.5 344.289063 L 333.09375 342.695313 L 334.679688 344.28125 L 333.085938 345.875 L 334.679688 347.46875 L 333.09375 349.050781 L 331.5 347.457031 L 329.90625 349.050781 L 328.320313 347.46875 L 329.914063 345.875 L 328.320313 344.28125 Z M 329.90625 342.695313 "/>
<path fill-rule="nonzero" fill="rgb(90.196079%, 62.352943%, 0%)" fill-opacity="1" d="M 375.816406 325.589844 L 377.410156 327.183594 L 379.003906 325.589844 L 380.585938 327.175781 L 378.992188 328.769531 L 380.585938 330.363281 L 379.003906 331.949219 L 377.410156 330.355469 L 375.816406 331.949219 L 374.230469 330.363281 L 375.824219 328.769531 L 374.230469 327.175781 Z M 375.816406 325.589844 "/>
<path fill-rule="nonzero" fill="rgb(90.196079%, 62.352943%, 0%)" fill-opacity="1" d="M 421.722656 323.425781 L 423.316406 325.019531 L 424.914063 323.425781 L 426.496094 325.007813 L 424.902344 326.601563 L 426.496094 328.195313 L 424.914063 329.78125 L 423.316406 328.1875 L 421.722656 329.78125 L 420.140625 328.195313 L 421.734375 326.601563 L 420.140625 325.007813 Z M 421.722656 323.425781 "/>
<path fill-rule="nonzero" fill="rgb(90.196079%, 62.352943%, 0%)" fill-opacity="1" d="M 467.632813 334.050781 L 469.226563 335.644531 L 470.820313 334.050781 L 472.40625 335.636719 L 470.8125 337.230469 L 472.40625 338.824219 L 470.820313 340.410156 L 469.226563 338.816406 L 467.632813 340.410156 L 466.046875 338.824219 L 467.644531 337.230469 L 466.046875 335.636719 Z M 467.632813 334.050781 "/>
<path fill-rule="nonzero" fill="rgb(90.196079%, 62.352943%, 0%)" fill-opacity="1" d="M 513.542969 327.710938 L 515.136719 329.304688 L 516.730469 327.710938 L 518.316406 329.296875 L 516.722656 330.890625 L 518.316406 332.484375 L 516.730469 334.070313 L 515.136719 332.476563 L 513.542969 334.070313 L 511.957031 332.484375 L 513.550781 330.890625 L 511.957031 329.296875 Z M 513.542969 327.710938 "/>
<path fill-rule="nonzero" fill="rgb(90.196079%, 62.352943%, 0%)" fill-opacity="1" d="M 559.453125 309.804688 L 561.046875 311.398438 L 562.640625 309.804688 L 564.222656 311.390625 L 562.628906 312.984375 L 564.222656 314.578125 L 562.640625 316.164063 L 561.046875 314.570313 L 559.453125 316.164063 L 557.867188 314.578125 L 559.460938 312.984375 L 557.867188 311.390625 Z M 559.453125 309.804688 "/>
<path fill-rule="nonzero" fill="rgb(0%, 61.960787%, 45.09804%)" fill-opacity="1" d="M 100.359375 104.585938 L 101.953125 106.183594 L 103.546875 104.585938 L 105.132813 106.171875 L 103.539063 107.765625 L 105.132813 109.359375 L 103.546875 110.945313 L 101.953125 109.351563 L 100.359375 110.945313 L 98.777344 109.359375 L 100.371094 107.765625 L 98.777344 106.171875 Z M 100.359375 104.585938 "/>
<path fill-rule="nonzero" fill="rgb(0%, 61.960787%, 45.09804%)" fill-opacity="1" d="M 146.269531 182.527344 L 147.863281 184.121094 L 149.457031 182.527344 L 151.042969 184.113281 L 149.449219 185.707031 L 151.042969 187.300781 L 149.457031 188.886719 L 147.863281 187.292969 L 146.269531 188.886719 L 144.683594 187.300781 L 146.277344 185.707031 L 144.683594 184.113281 Z M 146.269531 182.527344 "/>
<path fill-rule="nonzero" fill="rgb(0%, 61.960787%, 45.09804%)" fill-opacity="1" d="M 192.179688 252.472656 L 193.773438 254.070313 L 195.367188 252.472656 L 196.953125 254.058594 L 195.355469 255.652344 L 196.953125 257.246094 L 195.367188 258.832031 L 193.773438 257.238281 L 192.179688 258.832031 L 190.59375 257.246094 L 192.1875 255.652344 L 190.59375 254.058594 Z M 192.179688 252.472656 "/>
<path fill-rule="nonzero" fill="rgb(0%, 61.960787%, 45.09804%)" fill-opacity="1" d="M 238.085938 365.839844 L 239.683594 367.433594 L 241.277344 365.839844 L 242.859375 367.425781 L 241.265625 369.019531 L 242.859375 370.613281 L 241.277344 372.199219 L 239.683594 370.605469 L 238.085938 372.199219 L 236.503906 370.613281 L 238.097656 369.019531 L 236.503906 367.425781 Z M 238.085938 365.839844 "/>
<path fill-rule="nonzero" fill="rgb(0%, 61.960787%, 45.09804%)" fill-opacity="1" d="M 283.996094 339.582031 L 285.589844 341.175781 L 287.183594 339.582031 L 288.769531 341.167969 L 287.175781 342.761719 L 288.769531 344.355469 L 287.183594 345.941406 L 285.589844 344.34375 L 283.996094 345.941406 L 282.410156 344.355469 L 284.007813 342.761719 L 282.410156 341.167969 Z M 283.996094 339.582031 "/>
<path fill-rule="nonzero" fill="rgb(0%, 61.960787%, 45.09804%)" fill-opacity="1" d="M 329.90625 337.039063 L 331.5 338.632813 L 333.09375 337.039063 L 334.679688 338.625 L 333.085938 340.21875 L 334.679688 341.8125 L 333.09375 343.398438 L 331.5 341.804688 L 329.90625 343.398438 L 328.320313 341.8125 L 329.914063 340.21875 L 328.320313 338.625 Z M 329.90625 337.039063 "/>
<path fill-rule="nonzero" fill="rgb(0%, 61.960787%, 45.09804%)" fill-opacity="1" d="M 375.816406 323.179688 L 377.410156 324.773438 L 379.003906 323.179688 L 380.585938 324.765625 L 378.992188 326.359375 L 380.585938 327.953125 L 379.003906 329.539063 L 377.410156 327.945313 L 375.816406 329.539063 L 374.230469 327.953125 L 375.824219 326.359375 L 374.230469 324.765625 Z M 375.816406 323.179688 "/>
<path fill-rule="nonzero" fill="rgb(0%, 61.960787%, 45.09804%)" fill-opacity="1" d="M 421.722656 324.933594 L 423.316406 326.527344 L 424.914063 324.933594 L 426.496094 326.515625 L 424.902344 328.109375 L 426.496094 329.707031 L 424.914063 331.289063 L 423.316406 329.695313 L 421.722656 331.289063 L 420.140625 329.707031 L 421.734375 328.109375 L 420.140625 326.515625 Z M 421.722656 324.933594 "/>
<path fill-rule="nonzero" fill="rgb(0%, 61.960787%, 45.09804%)" fill-opacity="1" d="M 467.632813 320.671875 L 469.226563 322.265625 L 470.820313 320.671875 L 472.40625 322.253906 L 470.8125 323.847656 L 472.40625 325.445313 L 470.820313 327.027344 L 469.226563 325.433594 L 467.632813 327.027344 L 466.046875 325.445313 L 467.644531 323.847656 L 466.046875 322.253906 Z M 467.632813 320.671875 "/>
<path fill-rule="nonzero" fill="rgb(0%, 61.960787%, 45.09804%)" fill-opacity="1" d="M 513.542969 324.851563 L 515.136719 326.449219 L 516.730469 324.851563 L 518.316406 326.4375 L 516.722656 328.03125 L 518.316406 329.625 L 516.730469 331.210938 L 515.136719 329.617188 L 513.542969 331.210938 L 511.957031 329.625 L 513.550781 328.03125 L 511.957031 326.4375 Z M 513.542969 324.851563 "/>
<path fill-rule="nonzero" fill="rgb(0%, 61.960787%, 45.09804%)" fill-opacity="1" d="M 559.453125 324.90625 L 561.046875 326.5 L 562.640625 324.90625 L 564.222656 326.492188 L 562.628906 328.085938 L 564.222656 329.679688 L 562.640625 331.265625 L 561.046875 329.671875 L 559.453125 331.265625 L 557.867188 329.679688 L 559.460938 328.085938 L 557.867188 326.492188 Z M 559.453125 324.90625 "/>
<path fill-rule="nonzero" fill="rgb(80.000001%, 47.450981%, 65.490198%)" fill-opacity="1" d="M 100.359375 83.285156 L 101.953125 84.878906 L 103.546875 83.285156 L 105.132813 84.867188 L 103.539063 86.464844 L 105.132813 88.058594 L 103.546875 89.640625 L 101.953125 88.046875 L 100.359375 89.640625 L 98.777344 88.058594 L 100.371094 86.464844 L 98.777344 84.867188 Z M 100.359375 83.285156 "/>
<path fill-rule="nonzero" fill="rgb(80.000001%, 47.450981%, 65.490198%)" fill-opacity="1" d="M 146.269531 137.828125 L 147.863281 139.421875 L 149.457031 137.828125 L 151.042969 139.414063 L 149.449219 141.007813 L 151.042969 142.601563 L 149.457031 144.1875 L 147.863281 142.589844 L 146.269531 144.1875 L 144.683594 142.601563 L 146.277344 141.007813 L 144.683594 139.414063 Z M 146.269531 137.828125 "/>
<path fill-rule="nonzero" fill="rgb(80.000001%, 47.450981%, 65.490198%)" fill-opacity="1" d="M 192.179688 219.265625 L 193.773438 220.859375 L 195.367188 219.265625 L 196.953125 220.847656 L 195.355469 222.441406 L 196.953125 224.035156 L 195.367188 225.621094 L 193.773438 224.027344 L 192.179688 225.621094 L 190.59375 224.035156 L 192.1875 222.441406 L 190.59375 220.847656 Z M 192.179688 219.265625 "/>
<path fill-rule="nonzero" fill="rgb(80.000001%, 47.450981%, 65.490198%)" fill-opacity="1" d="M 238.085938 293.578125 L 239.683594 295.171875 L 241.277344 293.578125 L 242.859375 295.160156 L 241.265625 296.753906 L 242.859375 298.347656 L 241.277344 299.933594 L 239.683594 298.339844 L 238.085938 299.933594 L 236.503906 298.347656 L 238.097656 296.753906 L 236.503906 295.160156 Z M 238.085938 293.578125 "/>
<path fill-rule="nonzero" fill="rgb(80.000001%, 47.450981%, 65.490198%)" fill-opacity="1" d="M 283.996094 332.554688 L 285.589844 334.148438 L 287.183594 332.554688 L 288.769531 334.136719 L 287.175781 335.734375 L 288.769531 337.328125 L 287.183594 338.910156 L 285.589844 337.316406 L 283.996094 338.910156 L 282.410156 337.328125 L 284.007813 335.734375 L 282.410156 334.136719 Z M 283.996094 332.554688 "/>
<path fill-rule="nonzero" fill="rgb(80.000001%, 47.450981%, 65.490198%)" fill-opacity="1" d="M 329.90625 338.082031 L 331.5 339.675781 L 333.09375 338.082031 L 334.679688 339.667969 L 333.085938 341.261719 L 334.679688 342.855469 L 333.09375 344.441406 L 331.5 342.847656 L 329.90625 344.441406 L 328.320313 342.855469 L 329.914063 341.261719 L 328.320313 339.667969 Z M 329.90625 338.082031 "/>
<path fill-rule="nonzero" fill="rgb(80.000001%, 47.450981%, 65.490198%)" fill-opacity="1" d="M 375.816406 319.671875 L 377.410156 321.265625 L 379.003906 319.671875 L 380.585938 321.257813 L 378.992188 322.851563 L 380.585938 324.445313 L 379.003906 326.03125 L 377.410156 324.4375 L 375.816406 326.03125 L 374.230469 324.445313 L 375.824219 322.851563 L 374.230469 321.257813 Z M 375.816406 319.671875 "/>
<path fill-rule="nonzero" fill="rgb(80.000001%, 47.450981%, 65.490198%)" fill-opacity="1" d="M 421.722656 316.726563 L 423.316406 318.320313 L 424.914063 316.726563 L 426.496094 318.308594 L 424.902344 319.902344 L 426.496094 321.5 L 424.914063 323.082031 L 423.316406 321.488281 L 421.722656 323.082031 L 420.140625 321.5 L 421.734375 319.902344 L 420.140625 318.308594 Z M 421.722656 316.726563 "/>
<path fill-rule="nonzero" fill="rgb(80.000001%, 47.450981%, 65.490198%)" fill-opacity="1" d="M 467.632813 327.570313 L 469.226563 329.164063 L 470.820313 327.570313 L 472.40625 329.152344 L 470.8125 330.746094 L 472.40625 332.339844 L 470.820313 333.925781 L 469.226563 332.332031 L 467.632813 333.925781 L 466.046875 332.339844 L 467.644531 330.746094 L 466.046875 329.152344 Z M 467.632813 327.570313 "/>
<path fill-rule="nonzero" fill="rgb(80.000001%, 47.450981%, 65.490198%)" fill-opacity="1" d="M 513.542969 328.8125 L 515.136719 330.40625 L 516.730469 328.8125 L 518.316406 330.398438 L 516.722656 331.992188 L 518.316406 333.585938 L 516.730469 335.171875 L 515.136719 333.578125 L 513.542969 335.171875 L 511.957031 333.585938 L 513.550781 331.992188 L 511.957031 330.398438 Z M 513.542969 328.8125 "/>
<path fill-rule="nonzero" fill="rgb(80.000001%, 47.450981%, 65.490198%)" fill-opacity="1" d="M 559.453125 305.773438 L 561.046875 307.367188 L 562.640625 305.773438 L 564.222656 307.359375 L 562.628906 308.953125 L 564.222656 310.546875 L 562.640625 312.128906 L 561.046875 310.535156 L 559.453125 312.128906 L 557.867188 310.546875 L 559.460938 308.953125 L 557.867188 307.359375 Z M 559.453125 305.773438 "/>
<path fill-rule="nonzero" fill="rgb(33.725491%, 70.588237%, 91.37255%)" fill-opacity="1" d="M 100.359375 64.925781 L 101.953125 66.519531 L 103.546875 64.925781 L 105.132813 66.511719 L 103.539063 68.105469 L 105.132813 69.699219 L 103.546875 71.285156 L 101.953125 69.691406 L 100.359375 71.285156 L 98.777344 69.699219 L 100.371094 68.105469 L 98.777344 66.511719 Z M 100.359375 64.925781 "/>
<path fill-rule="nonzero" fill="rgb(33.725491%, 70.588237%, 91.37255%)" fill-opacity="1" d="M 146.269531 107.296875 L 147.863281 108.890625 L 149.457031 107.296875 L 151.042969 108.882813 L 149.449219 110.476563 L 151.042969 112.070313 L 149.457031 113.65625 L 147.863281 112.058594 L 146.269531 113.65625 L 144.683594 112.070313 L 146.277344 110.476563 L 144.683594 108.882813 Z M 146.269531 107.296875 "/>
<path fill-rule="nonzero" fill="rgb(33.725491%, 70.588237%, 91.37255%)" fill-opacity="1" d="M 192.179688 166.304688 L 193.773438 167.898438 L 195.367188 166.304688 L 196.953125 167.890625 L 195.355469 169.484375 L 196.953125 171.078125 L 195.367188 172.664063 L 193.773438 171.070313 L 192.179688 172.664063 L 190.59375 171.078125 L 192.1875 169.484375 L 190.59375 167.890625 Z M 192.179688 166.304688 "/>
<path fill-rule="nonzero" fill="rgb(33.725491%, 70.588237%, 91.37255%)" fill-opacity="1" d="M 238.085938 252.984375 L 239.683594 254.578125 L 241.277344 252.984375 L 242.859375 254.566406 L 241.265625 256.164063 L 242.859375 257.757813 L 241.277344 259.339844 L 239.683594 257.746094 L 238.085938 259.339844 L 236.503906 257.757813 L 238.097656 256.164063 L 236.503906 254.566406 Z M 238.085938 252.984375 "/>
<path fill-rule="nonzero" fill="rgb(33.725491%, 70.588237%, 91.37255%)" fill-opacity="1" d="M 283.996094 319.910156 L 285.589844 321.503906 L 287.183594 319.910156 L 288.769531 321.496094 L 287.175781 323.089844 L 288.769531 324.683594 L 287.183594 326.269531 L 285.589844 324.675781 L 283.996094 326.269531 L 282.410156 324.683594 L 284.007813 323.089844 L 282.410156 321.496094 Z M 283.996094 319.910156 "/>
<path fill-rule="nonzero" fill="rgb(33.725491%, 70.588237%, 91.37255%)" fill-opacity="1" d="M 329.90625 321.113281 L 331.5 322.707031 L 333.09375 321.113281 L 334.679688 322.699219 L 333.085938 324.292969 L 334.679688 325.886719 L 333.09375 327.472656 L 331.5 325.878906 L 329.90625 327.472656 L 328.320313 325.886719 L 329.914063 324.292969 L 328.320313 322.699219 Z M 329.90625 321.113281 "/>
<path fill-rule="nonzero" fill="rgb(33.725491%, 70.588237%, 91.37255%)" fill-opacity="1" d="M 375.816406 311.835938 L 377.410156 313.429688 L 379.003906 311.835938 L 380.585938 313.417969 L 378.992188 315.011719 L 380.585938 316.605469 L 379.003906 318.191406 L 377.410156 316.597656 L 375.816406 318.191406 L 374.230469 316.605469 L 375.824219 315.011719 L 374.230469 313.417969 Z M 375.816406 311.835938 "/>
<path fill-rule="nonzero" fill="rgb(33.725491%, 70.588237%, 91.37255%)" fill-opacity="1" d="M 421.722656 316.269531 L 423.316406 317.867188 L 424.914063 316.269531 L 426.496094 317.855469 L 424.902344 319.449219 L 426.496094 321.042969 L 424.914063 322.628906 L 423.316406 321.035156 L 421.722656 322.628906 L 420.140625 321.042969 L 421.734375 319.449219 L 420.140625 317.855469 Z M 421.722656 316.269531 "/>
<path fill-rule="nonzero" fill="rgb(33.725491%, 70.588237%, 91.37255%)" fill-opacity="1" d="M 467.632813 323.105469 L 469.226563 324.699219 L 470.820313 323.105469 L 472.40625 324.691406 L 470.8125 326.285156 L 472.40625 327.878906 L 470.820313 329.464844 L 469.226563 327.871094 L 467.632813 329.464844 L 466.046875 327.878906 L 467.644531 326.285156 L 466.046875 324.691406 Z M 467.632813 323.105469 "/>
<path fill-rule="nonzero" fill="rgb(33.725491%, 70.588237%, 91.37255%)" fill-opacity="1" d="M 513.542969 317.707031 L 515.136719 319.300781 L 516.730469 317.707031 L 518.316406 319.292969 L 516.722656 320.886719 L 518.316406 322.480469 L 516.730469 324.066406 L 515.136719 322.472656 L 513.542969 324.066406 L 511.957031 322.480469 L 513.550781 320.886719 L 511.957031 319.292969 Z M 513.542969 317.707031 "/>
<path fill-rule="nonzero" fill="rgb(33.725491%, 70.588237%, 91.37255%)" fill-opacity="1" d="M 559.453125 302.300781 L 561.046875 303.894531 L 562.640625 302.300781 L 564.222656 303.886719 L 562.628906 305.480469 L 564.222656 307.074219 L 562.640625 308.660156 L 561.046875 307.066406 L 559.453125 308.660156 L 557.867188 307.074219 L 559.460938 305.480469 L 557.867188 303.886719 Z M 559.453125 302.300781 "/>
<path fill-rule="nonzero" fill="rgb(83.529413%, 36.862746%, 0%)" fill-opacity="1" d="M 100.359375 48.957031 L 101.953125 50.550781 L 103.546875 48.957031 L 105.132813 50.542969 L 103.539063 52.136719 L 105.132813 53.730469 L 103.546875 55.316406 L 101.953125 53.722656 L 100.359375 55.316406 L 98.777344 53.730469 L 100.371094 52.136719 L 98.777344 50.542969 Z M 100.359375 48.957031 "/>
<path fill-rule="nonzero" fill="rgb(83.529413%, 36.862746%, 0%)" fill-opacity="1" d="M 146.269531 85.730469 L 147.863281 87.324219 L 149.457031 85.730469 L 151.042969 87.316406 L 149.449219 88.910156 L 151.042969 90.503906 L 149.457031 92.085938 L 147.863281 90.492188 L 146.269531 92.085938 L 144.683594 90.503906 L 146.277344 88.910156 L 144.683594 87.316406 Z M 146.269531 85.730469 "/>
<path fill-rule="nonzero" fill="rgb(83.529413%, 36.862746%, 0%)" fill-opacity="1" d="M 192.179688 139.234375 L 193.773438 140.828125 L 195.367188 139.234375 L 196.953125 140.816406 L 195.355469 142.410156 L 196.953125 144.003906 L 195.367188 145.589844 L 193.773438 143.996094 L 192.179688 145.589844 L 190.59375 144.003906 L 192.1875 142.410156 L 190.59375 140.816406 Z M 192.179688 139.234375 "/>
<path fill-rule="nonzero" fill="rgb(83.529413%, 36.862746%, 0%)" fill-opacity="1" d="M 238.085938 203.359375 L 239.683594 204.953125 L 241.277344 203.359375 L 242.859375 204.945313 L 241.265625 206.539063 L 242.859375 208.132813 L 241.277344 209.71875 L 239.683594 208.121094 L 238.085938 209.71875 L 236.503906 208.132813 L 238.097656 206.539063 L 236.503906 204.945313 Z M 238.085938 203.359375 "/>
<path fill-rule="nonzero" fill="rgb(83.529413%, 36.862746%, 0%)" fill-opacity="1" d="M 283.996094 289.628906 L 285.589844 291.222656 L 287.183594 289.628906 L 288.769531 291.214844 L 287.175781 292.808594 L 288.769531 294.402344 L 287.183594 295.988281 L 285.589844 294.394531 L 283.996094 295.988281 L 282.410156 294.402344 L 284.007813 292.808594 L 282.410156 291.214844 Z M 283.996094 289.628906 "/>
<path fill-rule="nonzero" fill="rgb(83.529413%, 36.862746%, 0%)" fill-opacity="1" d="M 329.90625 319.859375 L 331.5 321.453125 L 333.09375 319.859375 L 334.679688 321.445313 L 333.085938 323.039063 L 334.679688 324.632813 L 333.09375 326.21875 L 331.5 324.621094 L 329.90625 326.21875 L 328.320313 324.632813 L 329.914063 323.039063 L 328.320313 321.445313 Z M 329.90625 319.859375 "/>
<path fill-rule="nonzero" fill="rgb(83.529413%, 36.862746%, 0%)" fill-opacity="1" d="M 375.816406 305.09375 L 377.410156 306.6875 L 379.003906 305.09375 L 380.585938 306.679688 L 378.992188 308.273438 L 380.585938 309.867188 L 379.003906 311.449219 L 377.410156 309.855469 L 375.816406 311.449219 L 374.230469 309.867188 L 375.824219 308.273438 L 374.230469 306.679688 Z M 375.816406 305.09375 "/>
<path fill-rule="nonzero" fill="rgb(83.529413%, 36.862746%, 0%)" fill-opacity="1" d="M 421.722656 308.273438 L 423.316406 309.867188 L 424.914063 308.273438 L 426.496094 309.859375 L 424.902344 311.453125 L 426.496094 313.046875 L 424.914063 314.632813 L 423.316406 313.035156 L 421.722656 314.632813 L 420.140625 313.046875 L 421.734375 311.453125 L 420.140625 309.859375 Z M 421.722656 308.273438 "/>
<path fill-rule="nonzero" fill="rgb(83.529413%, 36.862746%, 0%)" fill-opacity="1" d="M 467.632813 313.992188 L 469.226563 315.585938 L 470.820313 313.992188 L 472.40625 315.574219 L 470.8125 317.167969 L 472.40625 318.761719 L 470.820313 320.347656 L 469.226563 318.753906 L 467.632813 320.347656 L 466.046875 318.761719 L 467.644531 317.167969 L 466.046875 315.574219 Z M 467.632813 313.992188 "/>
<path fill-rule="nonzero" fill="rgb(83.529413%, 36.862746%, 0%)" fill-opacity="1" d="M 513.542969 308.488281 L 515.136719 310.082031 L 516.730469 308.488281 L 518.316406 310.070313 L 516.722656 311.667969 L 518.316406 313.261719 L 516.730469 314.84375 L 515.136719 313.25 L 513.542969 314.84375 L 511.957031 313.261719 L 513.550781 311.667969 L 511.957031 310.070313 Z M 513.542969 308.488281 "/>
<path fill-rule="nonzero" fill="rgb(83.529413%, 36.862746%, 0%)" fill-opacity="1" d="M 559.453125 314.085938 L 561.046875 315.679688 L 562.640625 314.085938 L 564.222656 315.671875 L 562.628906 317.265625 L 564.222656 318.859375 L 562.640625 320.441406 L 561.046875 318.847656 L 559.453125 320.441406 L 557.867188 318.859375 L 559.460938 317.265625 L 557.867188 315.671875 Z M 559.453125 314.085938 "/>
<path fill-rule="nonzero" fill="rgb(100%, 100%, 100%)" fill-opacity="1" stroke-width="1" stroke-linecap="butt" stroke-linejoin="miter" stroke="rgb(0%, 0%, 0%)" stroke-opacity="1" stroke-miterlimit="2" d="M 481 213 L 578 213 L 578 42 L 481 42 Z M 481 213 "/>
<path fill="none" stroke-width="1" stroke-linecap="butt" stroke-linejoin="miter" stroke="rgb(0%, 0%, 0%)" stroke-opacity="1" stroke-miterlimit="1.154701" d="M 193.773438 391.5 L 193.773438 396.5 "/>
<path fill="none" stroke-width="1" stroke-linecap="butt" stroke-linejoin="miter" stroke="rgb(0%, 0%, 0%)" stroke-opacity="1" stroke-miterlimit="1.154701" d="M 377.410156 391.5 L 377.410156 396.5 "/>
<path fill="none" stroke-width="1" stroke-linecap="butt" stroke-linejoin="miter" stroke="rgb(0%, 0%, 0%)" stroke-opacity="1" stroke-miterlimit="1.154701" d="M 561.046875 391.5 L 561.046875 396.5 "/>
<path fill="none" stroke-width="1" stroke-linecap="butt" stroke-linejoin="miter" stroke="rgb(0%, 0%, 0%)" stroke-opacity="1" stroke-miterlimit="1.154701" d="M 78.5 331.871094 L 73.5 331.871094 "/>
<path fill="none" stroke-width="1" stroke-linecap="butt" stroke-linejoin="miter" stroke="rgb(0%, 0%, 0%)" stroke-opacity="1" stroke-miterlimit="1.154701" d="M 78.5 224.328125 L 73.5 224.328125 "/>
<path fill="none" stroke-width="1" stroke-linecap="butt" stroke-linejoin="miter" stroke="rgb(0%, 0%, 0%)" stroke-opacity="1" stroke-miterlimit="1.154701" d="M 78.5 116.789063 L 73.5 116.789063 "/>
<path fill-rule="nonzero" fill="rgb(0%, 44.705883%, 69.803923%)" fill-opacity="1" d="M 495.5625 78.976563 L 497.15625 80.570313 L 498.75 78.976563 L 500.335938 80.5625 L 498.742188 82.15625 L 500.335938 83.75 L 498.75 85.332031 L 497.15625 83.738281 L 495.5625 85.332031 L 493.980469 83.75 L 495.574219 82.15625 L 493.980469 80.5625 Z M 495.5625 78.976563 "/>
<path fill-rule="nonzero" fill="rgb(90.196079%, 62.352943%, 0%)" fill-opacity="1" d="M 495.5625 101.976563 L 497.15625 103.570313 L 498.75 101.976563 L 500.335938 103.5625 L 498.742188 105.15625 L 500.335938 106.75 L 498.75 108.332031 L 497.15625 106.738281 L 495.5625 108.332031 L 493.980469 106.75 L 495.574219 105.15625 L 493.980469 103.5625 Z M 495.5625 101.976563 "/>
<path fill-rule="nonzero" fill="rgb(0%, 61.960787%, 45.09804%)" fill-opacity="1" d="M 495.5625 124.976563 L 497.15625 126.570313 L 498.75 124.976563 L 500.335938 126.5625 L 498.742188 128.15625 L 500.335938 129.75 L 498.75 131.332031 L 497.15625 129.738281 L 495.5625 131.332031 L 493.980469 129.75 L 495.574219 128.15625 L 493.980469 126.5625 Z M 495.5625 124.976563 "/>
<path fill-rule="nonzero" fill="rgb(80.000001%, 47.450981%, 65.490198%)" fill-opacity="1" d="M 495.5625 147.976563 L 497.15625 149.570313 L 498.75 147.976563 L 500.335938 149.5625 L 498.742188 151.15625 L 500.335938 152.75 L 498.75 154.332031 L 497.15625 152.738281 L 495.5625 154.332031 L 493.980469 152.75 L 495.574219 151.15625 L 493.980469 149.5625 Z M 495.5625 147.976563 "/>
<path fill-rule="nonzero" fill="rgb(33.725491%, 70.588237%, 91.37255%)" fill-opacity="1" d="M 495.5625 170.976563 L 497.15625 172.570313 L 498.75 170.976563 L 500.335938 172.5625 L 498.742188 174.15625 L 500.335938 175.75 L 498.75 177.332031 L 497.15625 175.738281 L 495.5625 177.332031 L 493.980469 175.75 L 495.574219 174.15625 L 493.980469 172.5625 Z M 495.5625 170.976563 "/>
<path fill-rule="nonzero" fill="rgb(83.529413%, 36.862746%, 0%)" fill-opacity="1" d="M 495.5625 193.976563 L 497.15625 195.570313 L 498.75 193.976563 L 500.335938 195.5625 L 498.742188 197.15625 L 500.335938 198.75 L 498.75 200.332031 L 497.15625 198.738281 L 495.5625 200.332031 L 493.980469 198.75 L 495.574219 197.15625 L 493.980469 195.5625 Z M 495.5625 193.976563 "/>
<g fill="rgb(0%, 0%, 0%)" fill-opacity="1">
<use xlink:href="#glyph-11-0-41010b56" x="488.648075" y="61.102991"/>
</g>
<g fill="rgb(0%, 0%, 0%)" fill-opacity="1">
<use xlink:href="#glyph-11-1-41010b56" x="497.986077" y="61.102991"/>
</g>
<g fill="rgb(0%, 0%, 0%)" fill-opacity="1">
<use xlink:href="#glyph-12-0-41010b56" x="501.878075" y="61.102991"/>
</g>
<g fill="rgb(0%, 0%, 0%)" fill-opacity="1">
<use xlink:href="#glyph-11-2-41010b56" x="510.432076" y="61.102991"/>
</g>
<g fill="rgb(0%, 0%, 0%)" fill-opacity="1">
<use xlink:href="#glyph-11-3-41010b56" x="518.216077" y="61.102991"/>
</g>
<g fill="rgb(0%, 0%, 0%)" fill-opacity="1">
<use xlink:href="#glyph-11-4-41010b56" x="526.770078" y="61.102991"/>
</g>
<g fill="rgb(0%, 0%, 0%)" fill-opacity="1">
<use xlink:href="#glyph-11-5-41010b56" x="534.554079" y="61.102991"/>
</g>
<g fill="rgb(0%, 0%, 0%)" fill-opacity="1">
<use xlink:href="#glyph-11-6-41010b56" x="542.338079" y="61.102991"/>
</g>
<g fill="rgb(0%, 0%, 0%)" fill-opacity="1">
<use xlink:href="#glyph-11-7-41010b56" x="546.230078" y="61.102991"/>
</g>
<g fill="rgb(0%, 0%, 0%)" fill-opacity="1">
<use xlink:href="#glyph-11-2-41010b56" x="554.784079" y="61.102991"/>
</g>
<g fill="rgb(0%, 0%, 0%)" fill-opacity="1">
<use xlink:href="#glyph-11-8-41010b56" x="562.568075" y="61.102991"/>
</g>
<g fill="rgb(0%, 0%, 0%)" fill-opacity="1">
<use xlink:href="#glyph-13-0-41010b56" x="512.157573" y="87.62249"/>
</g>
<g fill="rgb(0%, 0%, 0%)" fill-opacity="1">
<use xlink:href="#glyph-13-1-41010b56" x="519.657573" y="87.62249"/>
</g>
<g fill="rgb(0%, 0%, 0%)" fill-opacity="1">
<use xlink:href="#glyph-13-2-41010b56" x="523.827573" y="87.62249"/>
</g>
<g fill="rgb(0%, 0%, 0%)" fill-opacity="1">
<use xlink:href="#glyph-13-1-41010b56" x="533.487573" y="87.62249"/>
</g>
<g fill="rgb(0%, 0%, 0%)" fill-opacity="1">
<use xlink:href="#glyph-13-3-41010b56" x="537.657573" y="87.62249"/>
</g>
<g fill="rgb(0%, 0%, 0%)" fill-opacity="1">
<use xlink:href="#glyph-13-4-41010b56" x="542.652572" y="87.62249"/>
</g>
<g fill="rgb(0%, 0%, 0%)" fill-opacity="1">
<use xlink:href="#glyph-13-5-41010b56" x="550.992573" y="87.62249"/>
</g>
<g fill="rgb(0%, 0%, 0%)" fill-opacity="1">
<use xlink:href="#glyph-13-6-41010b56" x="559.332573" y="87.62249"/>
</g>
<g fill="rgb(0%, 0%, 0%)" fill-opacity="1">
<use xlink:href="#glyph-13-7-41010b56" x="563.502575" y="87.62249"/>
</g>
<g fill="rgb(0%, 0%, 0%)" fill-opacity="1">
<use xlink:href="#glyph-13-0-41010b56" x="512.157573" y="110.62249"/>
</g>
<g fill="rgb(0%, 0%, 0%)" fill-opacity="1">
<use xlink:href="#glyph-13-1-41010b56" x="519.657573" y="110.62249"/>
</g>
<g fill="rgb(0%, 0%, 0%)" fill-opacity="1">
<use xlink:href="#glyph-13-2-41010b56" x="523.827573" y="110.62249"/>
</g>
<g fill="rgb(0%, 0%, 0%)" fill-opacity="1">
<use xlink:href="#glyph-13-1-41010b56" x="533.487573" y="110.62249"/>
</g>
<g fill="rgb(0%, 0%, 0%)" fill-opacity="1">
<use xlink:href="#glyph-13-3-41010b56" x="537.657573" y="110.62249"/>
</g>
<g fill="rgb(0%, 0%, 0%)" fill-opacity="1">
<use xlink:href="#glyph-13-4-41010b56" x="542.652572" y="110.62249"/>
</g>
<g fill="rgb(0%, 0%, 0%)" fill-opacity="1">
<use xlink:href="#glyph-13-8-41010b56" x="550.992573" y="110.62249"/>
</g>
<g fill="rgb(0%, 0%, 0%)" fill-opacity="1">
<use xlink:href="#glyph-13-6-41010b56" x="559.332573" y="110.62249"/>
</g>
<g fill="rgb(0%, 0%, 0%)" fill-opacity="1">
<use xlink:href="#glyph-13-8-41010b56" x="563.502575" y="110.62249"/>
</g>
<g fill="rgb(0%, 0%, 0%)" fill-opacity="1">
<use xlink:href="#glyph-13-0-41010b56" x="512.157573" y="133.622491"/>
</g>
<g fill="rgb(0%, 0%, 0%)" fill-opacity="1">
<use xlink:href="#glyph-13-1-41010b56" x="519.657573" y="133.622491"/>
</g>
<g fill="rgb(0%, 0%, 0%)" fill-opacity="1">
<use xlink:href="#glyph-13-2-41010b56" x="523.827573" y="133.622491"/>
</g>
<g fill="rgb(0%, 0%, 0%)" fill-opacity="1">
<use xlink:href="#glyph-13-1-41010b56" x="533.487573" y="133.622491"/>
</g>
<g fill="rgb(0%, 0%, 0%)" fill-opacity="1">
<use xlink:href="#glyph-13-3-41010b56" x="537.657573" y="133.622491"/>
</g>
<g fill="rgb(0%, 0%, 0%)" fill-opacity="1">
<use xlink:href="#glyph-13-9-41010b56" x="542.652572" y="133.622491"/>
</g>
<g fill="rgb(0%, 0%, 0%)" fill-opacity="1">
<use xlink:href="#glyph-13-5-41010b56" x="550.992573" y="133.622491"/>
</g>
<g fill="rgb(0%, 0%, 0%)" fill-opacity="1">
<use xlink:href="#glyph-13-6-41010b56" x="559.332573" y="133.622491"/>
</g>
<g fill="rgb(0%, 0%, 0%)" fill-opacity="1">
<use xlink:href="#glyph-13-10-41010b56" x="563.502575" y="133.622491"/>
</g>
<g fill="rgb(0%, 0%, 0%)" fill-opacity="1">
<use xlink:href="#glyph-13-0-41010b56" x="512.157573" y="156.622491"/>
</g>
<g fill="rgb(0%, 0%, 0%)" fill-opacity="1">
<use xlink:href="#glyph-13-1-41010b56" x="519.657573" y="156.622491"/>
</g>
<g fill="rgb(0%, 0%, 0%)" fill-opacity="1">
<use xlink:href="#glyph-13-2-41010b56" x="523.827573" y="156.622491"/>
</g>
<g fill="rgb(0%, 0%, 0%)" fill-opacity="1">
<use xlink:href="#glyph-13-1-41010b56" x="533.487573" y="156.622491"/>
</g>
<g fill="rgb(0%, 0%, 0%)" fill-opacity="1">
<use xlink:href="#glyph-13-3-41010b56" x="537.657573" y="156.622491"/>
</g>
<g fill="rgb(0%, 0%, 0%)" fill-opacity="1">
<use xlink:href="#glyph-13-11-41010b56" x="542.652572" y="156.622491"/>
</g>
<g fill="rgb(0%, 0%, 0%)" fill-opacity="1">
<use xlink:href="#glyph-13-8-41010b56" x="550.992573" y="156.622491"/>
</g>
<g fill="rgb(0%, 0%, 0%)" fill-opacity="1">
<use xlink:href="#glyph-13-6-41010b56" x="559.332573" y="156.622491"/>
</g>
<g fill="rgb(0%, 0%, 0%)" fill-opacity="1">
<use xlink:href="#glyph-13-9-41010b56" x="563.502575" y="156.622491"/>
</g>
<g fill="rgb(0%, 0%, 0%)" fill-opacity="1">
<use xlink:href="#glyph-13-0-41010b56" x="512.157573" y="179.622492"/>
</g>
<g fill="rgb(0%, 0%, 0%)" fill-opacity="1">
<use xlink:href="#glyph-13-1-41010b56" x="519.657573" y="179.622492"/>
</g>
<g fill="rgb(0%, 0%, 0%)" fill-opacity="1">
<use xlink:href="#glyph-13-2-41010b56" x="523.827573" y="179.622492"/>
</g>
<g fill="rgb(0%, 0%, 0%)" fill-opacity="1">
<use xlink:href="#glyph-13-1-41010b56" x="533.487573" y="179.622492"/>
</g>
<g fill="rgb(0%, 0%, 0%)" fill-opacity="1">
<use xlink:href="#glyph-13-3-41010b56" x="537.657573" y="179.622492"/>
</g>
<g fill="rgb(0%, 0%, 0%)" fill-opacity="1">
<use xlink:href="#glyph-13-12-41010b56" x="542.652572" y="179.622492"/>
</g>
<g fill="rgb(0%, 0%, 0%)" fill-opacity="1">
<use xlink:href="#glyph-13-8-41010b56" x="550.992573" y="179.622492"/>
</g>
<g fill="rgb(0%, 0%, 0%)" fill-opacity="1">
<use xlink:href="#glyph-13-6-41010b56" x="559.332573" y="179.622492"/>
</g>
<g fill="rgb(0%, 0%, 0%)" fill-opacity="1">
<use xlink:href="#glyph-13-13-41010b56" x="563.502575" y="179.622492"/>
</g>
<g fill="rgb(0%, 0%, 0%)" fill-opacity="1">
<use xlink:href="#glyph-13-0-41010b56" x="512.157552" y="202.622493"/>
</g>
<g fill="rgb(0%, 0%, 0%)" fill-opacity="1">
<use xlink:href="#glyph-13-1-41010b56" x="519.657552" y="202.622493"/>
</g>
<g fill="rgb(0%, 0%, 0%)" fill-opacity="1">
<use xlink:href="#glyph-13-2-41010b56" x="523.827552" y="202.622493"/>
</g>
<g fill="rgb(0%, 0%, 0%)" fill-opacity="1">
<use xlink:href="#glyph-13-1-41010b56" x="533.487552" y="202.622493"/>
</g>
<g fill="rgb(0%, 0%, 0%)" fill-opacity="1">
<use xlink:href="#glyph-13-3-41010b56" x="537.657552" y="202.622493"/>
</g>
<g fill="rgb(0%, 0%, 0%)" fill-opacity="1">
<use xlink:href="#glyph-13-4-41010b56" x="542.652551" y="202.622493"/>
</g>
<g fill="rgb(0%, 0%, 0%)" fill-opacity="1">
<use xlink:href="#glyph-13-4-41010b56" x="550.992552" y="202.622493"/>
</g>
<g fill="rgb(0%, 0%, 0%)" fill-opacity="1">
<use xlink:href="#glyph-13-8-41010b56" x="559.332552" y="202.622493"/>
</g>
<path fill="none" stroke-width="1" stroke-linecap="butt" stroke-linejoin="miter" stroke="rgb(0%, 0%, 0%)" stroke-opacity="1" stroke-miterlimit="1.154701" d="M 78.5 391 L 584.5 391 "/>
<path fill="none" stroke-width="1" stroke-linecap="butt" stroke-linejoin="miter" stroke="rgb(0%, 0%, 0%)" stroke-opacity="1" stroke-miterlimit="1.154701" d="M 79 391.5 L 79 35.5 "/>
<path fill="none" stroke-width="1" stroke-linecap="butt" stroke-linejoin="miter" stroke="rgb(0%, 0%, 0%)" stroke-opacity="1" stroke-miterlimit="1.154701" d="M 78.5 36 L 584.5 36 "/>
<path fill="none" stroke-width="1" stroke-linecap="butt" stroke-linejoin="miter" stroke="rgb(0%, 0%, 0%)" stroke-opacity="1" stroke-miterlimit="1.154701" d="M 584 391.5 L 584 35.5 "/>
</svg>
